<?xml version="1.0" encoding="UTF-8" standalone="no"?>
<!DOCTYPE svg PUBLIC "-//W3C//DTD SVG 1.1//EN"
 "http://www.w3.org/Graphics/SVG/1.1/DTD/svg11.dtd">
<!-- Generated by graphviz version 2.40.1 (20161225.0304)
 -->
<!-- Title: snakemake_dag Pages: 1 -->
<svg width="121pt" height="128pt"
 viewBox="0.00 0.00 121.28 128.00" xmlns="http://www.w3.org/2000/svg" xmlns:xlink="http://www.w3.org/1999/xlink">
<g id="graph0" class="graph" transform="scale(1 1) rotate(0) translate(4 124)">
<title>snakemake_dag</title>
<polygon fill="#ffffff" stroke="transparent" points="-4,4 -4,-124 117.2803,-124 117.2803,4 -4,4"/>
<!-- 0 -->
<g id="node1" class="node">
<title>0</title>
<path fill="none" stroke="#d85656" stroke-width="2" d="M101.4208,-36C101.4208,-36 11.8595,-36 11.8595,-36 5.8595,-36 -.1405,-30 -.1405,-24 -.1405,-24 -.1405,-12 -.1405,-12 -.1405,-6 5.8595,0 11.8595,0 11.8595,0 101.4208,0 101.4208,0 107.4208,0 113.4208,-6 113.4208,-12 113.4208,-12 113.4208,-24 113.4208,-24 113.4208,-30 107.4208,-36 101.4208,-36"/>
<text text-anchor="middle" x="56.6401" y="-15" font-family="sans" font-size="10.00" fill="#000000">prediction_processing</text>
</g>
<!-- 1 -->
<g id="node2" class="node">
<title>1</title>
<path fill="none" stroke="#d6d856" stroke-width="2" d="M74.5708,-120C74.5708,-120 38.7094,-120 38.7094,-120 32.7094,-120 26.7094,-114 26.7094,-108 26.7094,-108 26.7094,-84 26.7094,-84 26.7094,-78 32.7094,-72 38.7094,-72 38.7094,-72 74.5708,-72 74.5708,-72 80.5708,-72 86.5708,-78 86.5708,-84 86.5708,-84 86.5708,-108 86.5708,-108 86.5708,-114 80.5708,-120 74.5708,-120"/>
<text text-anchor="middle" x="56.6401" y="-108" font-family="sans" font-size="10.00" fill="#000000">data_load</text>
<text text-anchor="middle" x="56.6401" y="-98" font-family="sans" font-size="10.00" fill="#000000">met: tar</text>
<text text-anchor="middle" x="56.6401" y="-88" font-family="sans" font-size="10.00" fill="#000000">tax: 16S</text>
<text text-anchor="middle" x="56.6401" y="-78" font-family="sans" font-size="10.00" fill="#000000">time: 12M</text>
</g>
<!-- 1&#45;&gt;0 -->
<g id="edge1" class="edge">
<title>1&#45;&gt;0</title>
<path fill="none" stroke="#c0c0c0" stroke-width="2" d="M56.6401,-71.7479C56.6401,-63.6981 56.6401,-54.6653 56.6401,-46.3356"/>
<polygon fill="#c0c0c0" stroke="#c0c0c0" stroke-width="2" points="60.1402,-46.2875 56.6401,-36.2875 53.1402,-46.2876 60.1402,-46.2875"/>
</g>
</g>
</svg>
