<?xml version="1.0" encoding="UTF-8" standalone="no"?>
<!DOCTYPE svg PUBLIC "-//W3C//DTD SVG 1.1//EN"
 "http://www.w3.org/Graphics/SVG/1.1/DTD/svg11.dtd">
<!-- Generated by graphviz version 2.40.1 (20161225.0304)
 -->
<!-- Title: snakemake_dag Pages: 1 -->
<svg width="514pt" height="200pt"
 viewBox="0.00 0.00 514.28 200.00" xmlns="http://www.w3.org/2000/svg" xmlns:xlink="http://www.w3.org/1999/xlink">
<g id="graph0" class="graph" transform="scale(1 1) rotate(0) translate(4 196)">
<title>snakemake_dag</title>
<polygon fill="#ffffff" stroke="transparent" points="-4,4 -4,-196 510.2803,-196 510.2803,4 -4,4"/>
<!-- 0 -->
<g id="node1" class="node">
<title>0</title>
<path fill="none" stroke="#56c1d8" stroke-width="2" d="M267.6401,-36C267.6401,-36 237.6401,-36 237.6401,-36 231.6401,-36 225.6401,-30 225.6401,-24 225.6401,-24 225.6401,-12 225.6401,-12 225.6401,-6 231.6401,0 237.6401,0 237.6401,0 267.6401,0 267.6401,0 273.6401,0 279.6401,-6 279.6401,-12 279.6401,-12 279.6401,-24 279.6401,-24 279.6401,-30 273.6401,-36 267.6401,-36"/>
<text text-anchor="middle" x="252.6401" y="-15" font-family="sans" font-size="10.00" fill="#000000">all</text>
</g>
<!-- 1 -->
<g id="node2" class="node">
<title>1</title>
<path fill="none" stroke="#d8bc56" stroke-width="2" d="M101.4208,-108C101.4208,-108 11.8595,-108 11.8595,-108 5.8595,-108 -.1405,-102 -.1405,-96 -.1405,-96 -.1405,-84 -.1405,-84 -.1405,-78 5.8595,-72 11.8595,-72 11.8595,-72 101.4208,-72 101.4208,-72 107.4208,-72 113.4208,-78 113.4208,-84 113.4208,-84 113.4208,-96 113.4208,-96 113.4208,-102 107.4208,-108 101.4208,-108"/>
<text text-anchor="middle" x="56.6401" y="-87" font-family="sans" font-size="10.00" fill="#000000">prediction_processing</text>
</g>
<!-- 1&#45;&gt;0 -->
<g id="edge1" class="edge">
<title>1&#45;&gt;0</title>
<path fill="none" stroke="#c0c0c0" stroke-width="2" d="M105.8462,-71.9243C140.022,-59.3699 184.8268,-42.911 215.9056,-31.4943"/>
<polygon fill="#c0c0c0" stroke="#c0c0c0" stroke-width="2" points="217.3031,-34.7097 225.4829,-27.9761 214.8893,-28.139 217.3031,-34.7097"/>
</g>
<!-- 2 -->
<g id="node3" class="node">
<title>2</title>
<path fill="none" stroke="#d8bc56" stroke-width="2" d="M232.4208,-108C232.4208,-108 142.8595,-108 142.8595,-108 136.8595,-108 130.8595,-102 130.8595,-96 130.8595,-96 130.8595,-84 130.8595,-84 130.8595,-78 136.8595,-72 142.8595,-72 142.8595,-72 232.4208,-72 232.4208,-72 238.4208,-72 244.4208,-78 244.4208,-84 244.4208,-84 244.4208,-96 244.4208,-96 244.4208,-102 238.4208,-108 232.4208,-108"/>
<text text-anchor="middle" x="187.6401" y="-87" font-family="sans" font-size="10.00" fill="#000000">prediction_processing</text>
</g>
<!-- 2&#45;&gt;0 -->
<g id="edge2" class="edge">
<title>2&#45;&gt;0</title>
<path fill="none" stroke="#c0c0c0" stroke-width="2" d="M204.0424,-71.8314C211.6817,-63.3694 220.9085,-53.1489 229.2608,-43.8971"/>
<polygon fill="#c0c0c0" stroke="#c0c0c0" stroke-width="2" points="231.9139,-46.1813 236.017,-36.4133 226.718,-41.4906 231.9139,-46.1813"/>
</g>
<!-- 3 -->
<g id="node4" class="node">
<title>3</title>
<path fill="none" stroke="#d8bc56" stroke-width="2" d="M363.4208,-108C363.4208,-108 273.8595,-108 273.8595,-108 267.8595,-108 261.8595,-102 261.8595,-96 261.8595,-96 261.8595,-84 261.8595,-84 261.8595,-78 267.8595,-72 273.8595,-72 273.8595,-72 363.4208,-72 363.4208,-72 369.4208,-72 375.4208,-78 375.4208,-84 375.4208,-84 375.4208,-96 375.4208,-96 375.4208,-102 369.4208,-108 363.4208,-108"/>
<text text-anchor="middle" x="318.6401" y="-87" font-family="sans" font-size="10.00" fill="#000000">prediction_processing</text>
</g>
<!-- 3&#45;&gt;0 -->
<g id="edge3" class="edge">
<title>3&#45;&gt;0</title>
<path fill="none" stroke="#c0c0c0" stroke-width="2" d="M301.9855,-71.8314C294.2287,-63.3694 284.86,-53.1489 276.3791,-43.8971"/>
<polygon fill="#c0c0c0" stroke="#c0c0c0" stroke-width="2" points="278.8563,-41.4198 269.519,-36.4133 273.6962,-46.1499 278.8563,-41.4198"/>
</g>
<!-- 4 -->
<g id="node5" class="node">
<title>4</title>
<path fill="none" stroke="#d8bc56" stroke-width="2" d="M494.4208,-108C494.4208,-108 404.8595,-108 404.8595,-108 398.8595,-108 392.8595,-102 392.8595,-96 392.8595,-96 392.8595,-84 392.8595,-84 392.8595,-78 398.8595,-72 404.8595,-72 404.8595,-72 494.4208,-72 494.4208,-72 500.4208,-72 506.4208,-78 506.4208,-84 506.4208,-84 506.4208,-96 506.4208,-96 506.4208,-102 500.4208,-108 494.4208,-108"/>
<text text-anchor="middle" x="449.6401" y="-87" font-family="sans" font-size="10.00" fill="#000000">prediction_processing</text>
</g>
<!-- 4&#45;&gt;0 -->
<g id="edge4" class="edge">
<title>4&#45;&gt;0</title>
<path fill="none" stroke="#c0c0c0" stroke-width="2" d="M400.183,-71.9243C365.73,-59.3324 320.5297,-42.8124 289.2819,-31.3919"/>
<polygon fill="#c0c0c0" stroke="#c0c0c0" stroke-width="2" points="290.2519,-28.0201 279.6581,-27.8746 287.849,-34.5947 290.2519,-28.0201"/>
</g>
<!-- 5 -->
<g id="node6" class="node">
<title>5</title>
<path fill="none" stroke="#d85656" stroke-width="2" d="M82.732,-192C82.732,-192 30.5482,-192 30.5482,-192 24.5482,-192 18.5482,-186 18.5482,-180 18.5482,-180 18.5482,-156 18.5482,-156 18.5482,-150 24.5482,-144 30.5482,-144 30.5482,-144 82.732,-144 82.732,-144 88.732,-144 94.732,-150 94.732,-156 94.732,-156 94.732,-180 94.732,-180 94.732,-186 88.732,-192 82.732,-192"/>
<text text-anchor="middle" x="56.6401" y="-180" font-family="sans" font-size="10.00" fill="#000000">data_retrieval</text>
<text text-anchor="middle" x="56.6401" y="-170" font-family="sans" font-size="10.00" fill="#000000">met: tar</text>
<text text-anchor="middle" x="56.6401" y="-160" font-family="sans" font-size="10.00" fill="#000000">tax: 16S</text>
<text text-anchor="middle" x="56.6401" y="-150" font-family="sans" font-size="10.00" fill="#000000">time: 6W</text>
</g>
<!-- 5&#45;&gt;1 -->
<g id="edge5" class="edge">
<title>5&#45;&gt;1</title>
<path fill="none" stroke="#c0c0c0" stroke-width="2" d="M56.6401,-143.7479C56.6401,-135.6981 56.6401,-126.6653 56.6401,-118.3356"/>
<polygon fill="#c0c0c0" stroke="#c0c0c0" stroke-width="2" points="60.1402,-118.2875 56.6401,-108.2875 53.1402,-118.2876 60.1402,-118.2875"/>
</g>
<!-- 6 -->
<g id="node7" class="node">
<title>6</title>
<path fill="none" stroke="#d85656" stroke-width="2" d="M213.732,-192C213.732,-192 161.5482,-192 161.5482,-192 155.5482,-192 149.5482,-186 149.5482,-180 149.5482,-180 149.5482,-156 149.5482,-156 149.5482,-150 155.5482,-144 161.5482,-144 161.5482,-144 213.732,-144 213.732,-144 219.732,-144 225.732,-150 225.732,-156 225.732,-156 225.732,-180 225.732,-180 225.732,-186 219.732,-192 213.732,-192"/>
<text text-anchor="middle" x="187.6401" y="-180" font-family="sans" font-size="10.00" fill="#000000">data_retrieval</text>
<text text-anchor="middle" x="187.6401" y="-170" font-family="sans" font-size="10.00" fill="#000000">met: untar</text>
<text text-anchor="middle" x="187.6401" y="-160" font-family="sans" font-size="10.00" fill="#000000">tax: 16S</text>
<text text-anchor="middle" x="187.6401" y="-150" font-family="sans" font-size="10.00" fill="#000000">time: 6W</text>
</g>
<!-- 6&#45;&gt;2 -->
<g id="edge6" class="edge">
<title>6&#45;&gt;2</title>
<path fill="none" stroke="#c0c0c0" stroke-width="2" d="M187.6401,-143.7479C187.6401,-135.6981 187.6401,-126.6653 187.6401,-118.3356"/>
<polygon fill="#c0c0c0" stroke="#c0c0c0" stroke-width="2" points="191.1402,-118.2875 187.6401,-108.2875 184.1402,-118.2876 191.1402,-118.2875"/>
</g>
<!-- 7 -->
<g id="node8" class="node">
<title>7</title>
<path fill="none" stroke="#d85656" stroke-width="2" d="M344.732,-192C344.732,-192 292.5482,-192 292.5482,-192 286.5482,-192 280.5482,-186 280.5482,-180 280.5482,-180 280.5482,-156 280.5482,-156 280.5482,-150 286.5482,-144 292.5482,-144 292.5482,-144 344.732,-144 344.732,-144 350.732,-144 356.732,-150 356.732,-156 356.732,-156 356.732,-180 356.732,-180 356.732,-186 350.732,-192 344.732,-192"/>
<text text-anchor="middle" x="318.6401" y="-180" font-family="sans" font-size="10.00" fill="#000000">data_retrieval</text>
<text text-anchor="middle" x="318.6401" y="-170" font-family="sans" font-size="10.00" fill="#000000">met: tar</text>
<text text-anchor="middle" x="318.6401" y="-160" font-family="sans" font-size="10.00" fill="#000000">tax: 16S</text>
<text text-anchor="middle" x="318.6401" y="-150" font-family="sans" font-size="10.00" fill="#000000">time: 12M</text>
</g>
<!-- 7&#45;&gt;3 -->
<g id="edge7" class="edge">
<title>7&#45;&gt;3</title>
<path fill="none" stroke="#c0c0c0" stroke-width="2" d="M318.6401,-143.7479C318.6401,-135.6981 318.6401,-126.6653 318.6401,-118.3356"/>
<polygon fill="#c0c0c0" stroke="#c0c0c0" stroke-width="2" points="322.1402,-118.2875 318.6401,-108.2875 315.1402,-118.2876 322.1402,-118.2875"/>
</g>
<!-- 8 -->
<g id="node9" class="node">
<title>8</title>
<path fill="none" stroke="#d85656" stroke-width="2" d="M475.732,-192C475.732,-192 423.5482,-192 423.5482,-192 417.5482,-192 411.5482,-186 411.5482,-180 411.5482,-180 411.5482,-156 411.5482,-156 411.5482,-150 417.5482,-144 423.5482,-144 423.5482,-144 475.732,-144 475.732,-144 481.732,-144 487.732,-150 487.732,-156 487.732,-156 487.732,-180 487.732,-180 487.732,-186 481.732,-192 475.732,-192"/>
<text text-anchor="middle" x="449.6401" y="-180" font-family="sans" font-size="10.00" fill="#000000">data_retrieval</text>
<text text-anchor="middle" x="449.6401" y="-170" font-family="sans" font-size="10.00" fill="#000000">met: untar</text>
<text text-anchor="middle" x="449.6401" y="-160" font-family="sans" font-size="10.00" fill="#000000">tax: 16S</text>
<text text-anchor="middle" x="449.6401" y="-150" font-family="sans" font-size="10.00" fill="#000000">time: 12M</text>
</g>
<!-- 8&#45;&gt;4 -->
<g id="edge8" class="edge">
<title>8&#45;&gt;4</title>
<path fill="none" stroke="#c0c0c0" stroke-width="2" d="M449.6401,-143.7479C449.6401,-135.6981 449.6401,-126.6653 449.6401,-118.3356"/>
<polygon fill="#c0c0c0" stroke="#c0c0c0" stroke-width="2" points="453.1402,-118.2875 449.6401,-108.2875 446.1402,-118.2876 453.1402,-118.2875"/>
</g>
</g>
</svg>
