<?xml version="1.0" encoding="UTF-8" standalone="no"?>
<!DOCTYPE svg PUBLIC "-//W3C//DTD SVG 1.1//EN"
 "http://www.w3.org/Graphics/SVG/1.1/DTD/svg11.dtd">
<!-- Generated by graphviz version 2.40.1 (20161225.0304)
 -->
<!-- Title: snakemake_dag Pages: 1 -->
<svg width="223pt" height="404pt"
 viewBox="0.00 0.00 223.12 404.00" xmlns="http://www.w3.org/2000/svg" xmlns:xlink="http://www.w3.org/1999/xlink">
<g id="graph0" class="graph" transform="scale(1 1) rotate(0) translate(4 400)">
<title>snakemake_dag</title>
<polygon fill="#ffffff" stroke="transparent" points="-4,4 -4,-400 219.1152,-400 219.1152,4 -4,4"/>
<!-- 0 -->
<g id="node1" class="node">
<title>0</title>
<path fill="none" stroke="#d87d56" stroke-width="2" d="M123.4751,-36C123.4751,-36 93.4751,-36 93.4751,-36 87.4751,-36 81.4751,-30 81.4751,-24 81.4751,-24 81.4751,-12 81.4751,-12 81.4751,-6 87.4751,0 93.4751,0 93.4751,0 123.4751,0 123.4751,0 129.4751,0 135.4751,-6 135.4751,-12 135.4751,-12 135.4751,-24 135.4751,-24 135.4751,-30 129.4751,-36 123.4751,-36"/>
<text text-anchor="middle" x="108.4751" y="-15" font-family="sans" font-size="10.00" fill="#000000">all</text>
</g>
<!-- 1 -->
<g id="node2" class="node">
<title>1</title>
<path fill="none" stroke="#56c9d8" stroke-width="2" d="M88.5815,-180C88.5815,-180 26.3687,-180 26.3687,-180 20.3687,-180 14.3687,-174 14.3687,-168 14.3687,-168 14.3687,-156 14.3687,-156 14.3687,-150 20.3687,-144 26.3687,-144 26.3687,-144 88.5815,-144 88.5815,-144 94.5815,-144 100.5815,-150 100.5815,-156 100.5815,-156 100.5815,-168 100.5815,-168 100.5815,-174 94.5815,-180 88.5815,-180"/>
<text text-anchor="middle" x="57.4751" y="-159" font-family="sans" font-size="10.00" fill="#000000">ordination_plots</text>
</g>
<!-- 1&#45;&gt;0 -->
<g id="edge2" class="edge">
<title>1&#45;&gt;0</title>
<path fill="none" stroke="#c0c0c0" stroke-width="2" d="M63.9343,-143.7623C72.7097,-118.9846 88.4748,-74.4714 98.7023,-45.5939"/>
<polygon fill="#c0c0c0" stroke="#c0c0c0" stroke-width="2" points="102.029,-46.6844 102.0684,-36.0896 95.4306,-44.3474 102.029,-46.6844"/>
</g>
<!-- 2 -->
<g id="node3" class="node">
<title>2</title>
<path fill="none" stroke="#78d856" stroke-width="2" d="M184.5191,-108C184.5191,-108 122.4311,-108 122.4311,-108 116.4311,-108 110.4311,-102 110.4311,-96 110.4311,-96 110.4311,-84 110.4311,-84 110.4311,-78 116.4311,-72 122.4311,-72 122.4311,-72 184.5191,-72 184.5191,-72 190.5191,-72 196.5191,-78 196.5191,-84 196.5191,-84 196.5191,-96 196.5191,-96 196.5191,-102 190.5191,-108 184.5191,-108"/>
<text text-anchor="middle" x="153.4751" y="-87" font-family="sans" font-size="10.00" fill="#000000">prediction_plots</text>
</g>
<!-- 2&#45;&gt;0 -->
<g id="edge1" class="edge">
<title>2&#45;&gt;0</title>
<path fill="none" stroke="#c0c0c0" stroke-width="2" d="M142.1197,-71.8314C137.0425,-63.7079 130.9524,-53.9637 125.3575,-45.0118"/>
<polygon fill="#c0c0c0" stroke="#c0c0c0" stroke-width="2" points="128.2514,-43.0383 119.9834,-36.4133 122.3154,-46.7483 128.2514,-43.0383"/>
</g>
<!-- 3 -->
<g id="node4" class="node">
<title>3</title>
<path fill="none" stroke="#56a2d8" stroke-width="2" d="M92.9253,-252C92.9253,-252 12.0249,-252 12.0249,-252 6.0249,-252 .0249,-246 .0249,-240 .0249,-240 .0249,-228 .0249,-228 .0249,-222 6.0249,-216 12.0249,-216 12.0249,-216 92.9253,-216 92.9253,-216 98.9253,-216 104.9253,-222 104.9253,-228 104.9253,-228 104.9253,-240 104.9253,-240 104.9253,-246 98.9253,-252 92.9253,-252"/>
<text text-anchor="middle" x="52.4751" y="-231" font-family="sans" font-size="10.00" fill="#000000">ordination_analyses</text>
</g>
<!-- 3&#45;&gt;1 -->
<g id="edge3" class="edge">
<title>3&#45;&gt;1</title>
<path fill="none" stroke="#c0c0c0" stroke-width="2" d="M53.7368,-215.8314C54.2716,-208.131 54.9074,-198.9743 55.5017,-190.4166"/>
<polygon fill="#c0c0c0" stroke="#c0c0c0" stroke-width="2" points="58.9951,-190.6317 56.1964,-180.4133 52.0119,-190.1467 58.9951,-190.6317"/>
</g>
<!-- 4 -->
<g id="node5" class="node">
<title>4</title>
<path fill="none" stroke="#d8c356" stroke-width="2" d="M193.2411,-180C193.2411,-180 133.709,-180 133.709,-180 127.709,-180 121.709,-174 121.709,-168 121.709,-168 121.709,-156 121.709,-156 121.709,-150 127.709,-144 133.709,-144 133.709,-144 193.2411,-144 193.2411,-144 199.2411,-144 205.2411,-150 205.2411,-156 205.2411,-156 205.2411,-168 205.2411,-168 205.2411,-174 199.2411,-180 193.2411,-180"/>
<text text-anchor="middle" x="163.4751" y="-159" font-family="sans" font-size="10.00" fill="#000000">prediction_eval</text>
</g>
<!-- 4&#45;&gt;2 -->
<g id="edge4" class="edge">
<title>4&#45;&gt;2</title>
<path fill="none" stroke="#c0c0c0" stroke-width="2" d="M160.9517,-143.8314C159.8822,-136.131 158.6104,-126.9743 157.4219,-118.4166"/>
<polygon fill="#c0c0c0" stroke="#c0c0c0" stroke-width="2" points="160.875,-117.8367 156.0325,-108.4133 153.9415,-118.7997 160.875,-117.8367"/>
</g>
<!-- 5 -->
<g id="node6" class="node">
<title>5</title>
<path fill="none" stroke="#56d8a2" stroke-width="2" d="M134.567,-396C134.567,-396 82.3832,-396 82.3832,-396 76.3832,-396 70.3832,-390 70.3832,-384 70.3832,-384 70.3832,-372 70.3832,-372 70.3832,-366 76.3832,-360 82.3832,-360 82.3832,-360 134.567,-360 134.567,-360 140.567,-360 146.567,-366 146.567,-372 146.567,-372 146.567,-384 146.567,-384 146.567,-390 140.567,-396 134.567,-396"/>
<text text-anchor="middle" x="108.4751" y="-375" font-family="sans" font-size="10.00" fill="#000000">data_retrieval</text>
</g>
<!-- 5&#45;&gt;3 -->
<g id="edge5" class="edge">
<title>5&#45;&gt;3</title>
<path fill="none" stroke="#c0c0c0" stroke-width="2" d="M101.3827,-359.7623C91.7469,-334.9846 74.4362,-290.4714 63.2061,-261.5939"/>
<polygon fill="#c0c0c0" stroke="#c0c0c0" stroke-width="2" points="66.3965,-260.1411 59.5099,-252.0896 59.8725,-262.6783 66.3965,-260.1411"/>
</g>
<!-- 7 -->
<g id="node8" class="node">
<title>7</title>
<path fill="none" stroke="#567bd8" stroke-width="2" d="M203.2557,-324C203.2557,-324 113.6945,-324 113.6945,-324 107.6945,-324 101.6945,-318 101.6945,-312 101.6945,-312 101.6945,-300 101.6945,-300 101.6945,-294 107.6945,-288 113.6945,-288 113.6945,-288 203.2557,-288 203.2557,-288 209.2557,-288 215.2557,-294 215.2557,-300 215.2557,-300 215.2557,-312 215.2557,-312 215.2557,-318 209.2557,-324 203.2557,-324"/>
<text text-anchor="middle" x="158.4751" y="-303" font-family="sans" font-size="10.00" fill="#000000">prediction_processing</text>
</g>
<!-- 5&#45;&gt;7 -->
<g id="edge8" class="edge">
<title>5&#45;&gt;7</title>
<path fill="none" stroke="#c0c0c0" stroke-width="2" d="M121.0922,-359.8314C126.7923,-351.6232 133.6414,-341.7606 139.911,-332.7323"/>
<polygon fill="#c0c0c0" stroke="#c0c0c0" stroke-width="2" points="142.8589,-334.6234 145.6881,-324.4133 137.1093,-330.6306 142.8589,-334.6234"/>
</g>
<!-- 6 -->
<g id="node7" class="node">
<title>6</title>
<path fill="none" stroke="#9fd856" stroke-width="2" d="M198.1797,-252C198.1797,-252 134.7705,-252 134.7705,-252 128.7705,-252 122.7705,-246 122.7705,-240 122.7705,-240 122.7705,-228 122.7705,-228 122.7705,-222 128.7705,-216 134.7705,-216 134.7705,-216 198.1797,-216 198.1797,-216 204.1797,-216 210.1797,-222 210.1797,-228 210.1797,-228 210.1797,-240 210.1797,-240 210.1797,-246 204.1797,-252 198.1797,-252"/>
<text text-anchor="middle" x="166.4751" y="-231" font-family="sans" font-size="10.00" fill="#000000">cross_validation</text>
</g>
<!-- 6&#45;&gt;4 -->
<g id="edge6" class="edge">
<title>6&#45;&gt;4</title>
<path fill="none" stroke="#c0c0c0" stroke-width="2" d="M165.7181,-215.8314C165.3972,-208.131 165.0157,-198.9743 164.6591,-190.4166"/>
<polygon fill="#c0c0c0" stroke="#c0c0c0" stroke-width="2" points="168.1557,-190.2589 164.2423,-180.4133 161.1618,-190.5503 168.1557,-190.2589"/>
</g>
<!-- 7&#45;&gt;6 -->
<g id="edge7" class="edge">
<title>7&#45;&gt;6</title>
<path fill="none" stroke="#c0c0c0" stroke-width="2" d="M160.4938,-287.8314C161.3494,-280.131 162.3668,-270.9743 163.3177,-262.4166"/>
<polygon fill="#c0c0c0" stroke="#c0c0c0" stroke-width="2" points="166.8034,-262.7386 164.4292,-252.4133 159.8462,-261.9656 166.8034,-262.7386"/>
</g>
</g>
</svg>
