<?xml version="1.0" encoding="UTF-8" standalone="no"?>
<!DOCTYPE svg PUBLIC "-//W3C//DTD SVG 1.1//EN"
 "http://www.w3.org/Graphics/SVG/1.1/DTD/svg11.dtd">
<!-- Generated by graphviz version 2.40.1 (20161225.0304)
 -->
<!-- Title: snakemake_dag Pages: 1 -->
<svg width="485pt" height="404pt"
 viewBox="0.00 0.00 485.42 404.00" xmlns="http://www.w3.org/2000/svg" xmlns:xlink="http://www.w3.org/1999/xlink">
<g id="graph0" class="graph" transform="scale(1 1) rotate(0) translate(4 400)">
<title>snakemake_dag</title>
<polygon fill="#ffffff" stroke="transparent" points="-4,4 -4,-400 481.4209,-400 481.4209,4 -4,4"/>
<!-- 0 -->
<g id="node1" class="node">
<title>0</title>
<path fill="none" stroke="#5673d8" stroke-width="2" d="M228.5688,-36C228.5688,-36 198.5688,-36 198.5688,-36 192.5688,-36 186.5688,-30 186.5688,-24 186.5688,-24 186.5688,-12 186.5688,-12 186.5688,-6 192.5688,0 198.5688,0 198.5688,0 228.5688,0 228.5688,0 234.5688,0 240.5688,-6 240.5688,-12 240.5688,-12 240.5688,-24 240.5688,-24 240.5688,-30 234.5688,-36 228.5688,-36"/>
<text text-anchor="middle" x="213.5688" y="-15" font-family="sans" font-size="10.00" fill="#000000">all</text>
</g>
<!-- 1 -->
<g id="node2" class="node">
<title>1</title>
<path fill="none" stroke="#d8a456" stroke-width="2" d="M299.6752,-108C299.6752,-108 237.4625,-108 237.4625,-108 231.4625,-108 225.4625,-102 225.4625,-96 225.4625,-96 225.4625,-84 225.4625,-84 225.4625,-78 231.4625,-72 237.4625,-72 237.4625,-72 299.6752,-72 299.6752,-72 305.6752,-72 311.6752,-78 311.6752,-84 311.6752,-84 311.6752,-96 311.6752,-96 311.6752,-102 305.6752,-108 299.6752,-108"/>
<text text-anchor="middle" x="268.5688" y="-87" font-family="sans" font-size="10.00" fill="#000000">ordination_plots</text>
</g>
<!-- 1&#45;&gt;0 -->
<g id="edge3" class="edge">
<title>1&#45;&gt;0</title>
<path fill="none" stroke="#c0c0c0" stroke-width="2" d="M254.69,-71.8314C248.3553,-63.5386 240.7305,-53.557 233.7763,-44.4533"/>
<polygon fill="#c0c0c0" stroke="#c0c0c0" stroke-width="2" points="236.4863,-42.2353 227.6345,-36.4133 230.9236,-46.4847 236.4863,-42.2353"/>
</g>
<!-- 2 -->
<g id="node3" class="node">
<title>2</title>
<path fill="none" stroke="#56d0d8" stroke-width="2" d="M434.6128,-108C434.6128,-108 372.5249,-108 372.5249,-108 366.5249,-108 360.5249,-102 360.5249,-96 360.5249,-96 360.5249,-84 360.5249,-84 360.5249,-78 366.5249,-72 372.5249,-72 372.5249,-72 434.6128,-72 434.6128,-72 440.6128,-72 446.6128,-78 446.6128,-84 446.6128,-84 446.6128,-96 446.6128,-96 446.6128,-102 440.6128,-108 434.6128,-108"/>
<text text-anchor="middle" x="403.5688" y="-87" font-family="sans" font-size="10.00" fill="#000000">prediction_plots</text>
</g>
<!-- 2&#45;&gt;0 -->
<g id="edge1" class="edge">
<title>2&#45;&gt;0</title>
<path fill="none" stroke="#c0c0c0" stroke-width="2" d="M360.4549,-73.6621C327.2594,-61.0828 281.8716,-43.8831 250.3713,-31.9462"/>
<polygon fill="#c0c0c0" stroke="#c0c0c0" stroke-width="2" points="251.2564,-28.5388 240.665,-28.268 248.7759,-35.0846 251.2564,-28.5388"/>
</g>
<!-- 3 -->
<g id="node4" class="node">
<title>3</title>
<path fill="none" stroke="#56d8c9" stroke-width="2" d="M105.3913,-108C105.3913,-108 35.7464,-108 35.7464,-108 29.7464,-108 23.7464,-102 23.7464,-96 23.7464,-96 23.7464,-84 23.7464,-84 23.7464,-78 29.7464,-72 35.7464,-72 35.7464,-72 105.3913,-72 105.3913,-72 111.3913,-72 117.3913,-78 117.3913,-84 117.3913,-84 117.3913,-96 117.3913,-96 117.3913,-102 111.3913,-108 105.3913,-108"/>
<text text-anchor="middle" x="70.5688" y="-87" font-family="sans" font-size="10.00" fill="#000000">sparse_cca_plots</text>
</g>
<!-- 3&#45;&gt;0 -->
<g id="edge2" class="edge">
<title>3&#45;&gt;0</title>
<path fill="none" stroke="#c0c0c0" stroke-width="2" d="M106.6538,-71.8314C128.2759,-60.9447 155.6789,-47.1474 177.3286,-36.2468"/>
<polygon fill="#c0c0c0" stroke="#c0c0c0" stroke-width="2" points="179.1668,-39.24 186.5246,-31.6167 176.0188,-32.9877 179.1668,-39.24"/>
</g>
<!-- 4 -->
<g id="node5" class="node">
<title>4</title>
<path fill="none" stroke="#d8d356" stroke-width="2" d="M201.4728,-180C201.4728,-180 85.6649,-180 85.6649,-180 79.6649,-180 73.6649,-174 73.6649,-168 73.6649,-168 73.6649,-156 73.6649,-156 73.6649,-150 79.6649,-144 85.6649,-144 85.6649,-144 201.4728,-144 201.4728,-144 207.4728,-144 213.4728,-150 213.4728,-156 213.4728,-156 213.4728,-168 213.4728,-168 213.4728,-174 207.4728,-180 201.4728,-180"/>
<text text-anchor="middle" x="143.5688" y="-159" font-family="sans" font-size="10.00" fill="#000000">spearman_correlation_plots</text>
</g>
<!-- 4&#45;&gt;0 -->
<g id="edge4" class="edge">
<title>4&#45;&gt;0</title>
<path fill="none" stroke="#c0c0c0" stroke-width="2" d="M152.4344,-143.7623C164.5317,-118.8764 186.3066,-74.0822 200.3386,-45.2165"/>
<polygon fill="#c0c0c0" stroke="#c0c0c0" stroke-width="2" points="203.5511,-46.6135 204.7753,-36.0896 197.2555,-43.5531 203.5511,-46.6135"/>
</g>
<!-- 5 -->
<g id="node6" class="node">
<title>5</title>
<path fill="none" stroke="#78d856" stroke-width="2" d="M332.2831,-180C332.2831,-180 248.8546,-180 248.8546,-180 242.8546,-180 236.8546,-174 236.8546,-168 236.8546,-168 236.8546,-156 236.8546,-156 236.8546,-150 242.8546,-144 248.8546,-144 248.8546,-144 332.2831,-144 332.2831,-144 338.2831,-144 344.2831,-150 344.2831,-156 344.2831,-156 344.2831,-168 344.2831,-168 344.2831,-174 338.2831,-180 332.2831,-180"/>
<text text-anchor="middle" x="290.5688" y="-159" font-family="sans" font-size="10.00" fill="#000000">procrustes_analyses</text>
</g>
<!-- 5&#45;&gt;1 -->
<g id="edge5" class="edge">
<title>5&#45;&gt;1</title>
<path fill="none" stroke="#c0c0c0" stroke-width="2" d="M285.0173,-143.8314C282.6386,-136.0463 279.805,-126.7729 277.1656,-118.1347"/>
<polygon fill="#c0c0c0" stroke="#c0c0c0" stroke-width="2" points="280.4646,-116.954 274.1951,-108.4133 273.7701,-118.9996 280.4646,-116.954"/>
</g>
<!-- 6 -->
<g id="node7" class="node">
<title>6</title>
<path fill="none" stroke="#d8bc56" stroke-width="2" d="M449.3349,-180C449.3349,-180 389.8028,-180 389.8028,-180 383.8028,-180 377.8028,-174 377.8028,-168 377.8028,-168 377.8028,-156 377.8028,-156 377.8028,-150 383.8028,-144 389.8028,-144 389.8028,-144 449.3349,-144 449.3349,-144 455.3349,-144 461.3349,-150 461.3349,-156 461.3349,-156 461.3349,-168 461.3349,-168 461.3349,-174 455.3349,-180 449.3349,-180"/>
<text text-anchor="middle" x="419.5688" y="-159" font-family="sans" font-size="10.00" fill="#000000">prediction_eval</text>
</g>
<!-- 6&#45;&gt;2 -->
<g id="edge6" class="edge">
<title>6&#45;&gt;2</title>
<path fill="none" stroke="#c0c0c0" stroke-width="2" d="M415.5314,-143.8314C413.8202,-136.131 411.7854,-126.9743 409.8837,-118.4166"/>
<polygon fill="#c0c0c0" stroke="#c0c0c0" stroke-width="2" points="413.2467,-117.4159 407.6607,-108.4133 406.4134,-118.9344 413.2467,-117.4159"/>
</g>
<!-- 7 -->
<g id="node8" class="node">
<title>7</title>
<path fill="none" stroke="#568ad8" stroke-width="2" d="M55.2067,-252C55.2067,-252 11.931,-252 11.931,-252 5.931,-252 -.069,-246 -.069,-240 -.069,-240 -.069,-228 -.069,-228 -.069,-222 5.931,-216 11.931,-216 11.931,-216 55.2067,-216 55.2067,-216 61.2067,-216 67.2067,-222 67.2067,-228 67.2067,-228 67.2067,-240 67.2067,-240 67.2067,-246 61.2067,-252 55.2067,-252"/>
<text text-anchor="middle" x="33.5688" y="-231" font-family="sans" font-size="10.00" fill="#000000">sparse_cca</text>
</g>
<!-- 7&#45;&gt;3 -->
<g id="edge7" class="edge">
<title>7&#45;&gt;3</title>
<path fill="none" stroke="#c0c0c0" stroke-width="2" d="M38.2549,-215.7623C44.5936,-191.0928 55.959,-146.8598 63.3813,-117.9731"/>
<polygon fill="#c0c0c0" stroke="#c0c0c0" stroke-width="2" points="66.822,-118.6461 65.9208,-108.0896 60.0423,-116.904 66.822,-118.6461"/>
</g>
<!-- 8 -->
<g id="node9" class="node">
<title>8</title>
<path fill="none" stroke="#56d892" stroke-width="2" d="M185.7879,-252C185.7879,-252 97.3497,-252 97.3497,-252 91.3497,-252 85.3497,-246 85.3497,-240 85.3497,-240 85.3497,-228 85.3497,-228 85.3497,-222 91.3497,-216 97.3497,-216 97.3497,-216 185.7879,-216 185.7879,-216 191.7879,-216 197.7879,-222 197.7879,-228 197.7879,-228 197.7879,-240 197.7879,-240 197.7879,-246 191.7879,-252 185.7879,-252"/>
<text text-anchor="middle" x="141.5688" y="-231" font-family="sans" font-size="10.00" fill="#000000">spearman_correlation</text>
</g>
<!-- 8&#45;&gt;4 -->
<g id="edge8" class="edge">
<title>8&#45;&gt;4</title>
<path fill="none" stroke="#c0c0c0" stroke-width="2" d="M142.0735,-215.8314C142.2874,-208.131 142.5418,-198.9743 142.7795,-190.4166"/>
<polygon fill="#c0c0c0" stroke="#c0c0c0" stroke-width="2" points="146.2783,-190.5066 143.0574,-180.4133 139.2809,-190.3122 146.2783,-190.5066"/>
</g>
<!-- 9 -->
<g id="node10" class="node">
<title>9</title>
<path fill="none" stroke="#56d87b" stroke-width="2" d="M359.6372,-252C359.6372,-252 227.5005,-252 227.5005,-252 221.5005,-252 215.5005,-246 215.5005,-240 215.5005,-240 215.5005,-228 215.5005,-228 215.5005,-222 221.5005,-216 227.5005,-216 227.5005,-216 359.6372,-216 359.6372,-216 365.6372,-216 371.6372,-222 371.6372,-228 371.6372,-228 371.6372,-240 371.6372,-240 371.6372,-246 365.6372,-252 359.6372,-252"/>
<text text-anchor="middle" x="293.5688" y="-231" font-family="sans" font-size="10.00" fill="#000000">constructing_distance_matrices</text>
</g>
<!-- 9&#45;&gt;5 -->
<g id="edge9" class="edge">
<title>9&#45;&gt;5</title>
<path fill="none" stroke="#c0c0c0" stroke-width="2" d="M292.8118,-215.8314C292.491,-208.131 292.1094,-198.9743 291.7529,-190.4166"/>
<polygon fill="#c0c0c0" stroke="#c0c0c0" stroke-width="2" points="295.2494,-190.2589 291.3361,-180.4133 288.2555,-190.5503 295.2494,-190.2589"/>
</g>
<!-- 10 -->
<g id="node11" class="node">
<title>10</title>
<path fill="none" stroke="#d85656" stroke-width="2" d="M465.2734,-252C465.2734,-252 401.8642,-252 401.8642,-252 395.8642,-252 389.8642,-246 389.8642,-240 389.8642,-240 389.8642,-228 389.8642,-228 389.8642,-222 395.8642,-216 401.8642,-216 401.8642,-216 465.2734,-216 465.2734,-216 471.2734,-216 477.2734,-222 477.2734,-228 477.2734,-228 477.2734,-240 477.2734,-240 477.2734,-246 471.2734,-252 465.2734,-252"/>
<text text-anchor="middle" x="433.5688" y="-231" font-family="sans" font-size="10.00" fill="#000000">cross_validation</text>
</g>
<!-- 10&#45;&gt;6 -->
<g id="edge10" class="edge">
<title>10&#45;&gt;6</title>
<path fill="none" stroke="#c0c0c0" stroke-width="2" d="M430.0361,-215.8314C428.5388,-208.131 426.7583,-198.9743 425.0943,-190.4166"/>
<polygon fill="#c0c0c0" stroke="#c0c0c0" stroke-width="2" points="428.4936,-189.5614 423.1492,-180.4133 421.6223,-190.8975 428.4936,-189.5614"/>
</g>
<!-- 11 -->
<g id="node12" class="node">
<title>11</title>
<path fill="none" stroke="#97d856" stroke-width="2" d="M277.6203,-324C277.6203,-324 141.5174,-324 141.5174,-324 135.5174,-324 129.5174,-318 129.5174,-312 129.5174,-312 129.5174,-300 129.5174,-300 129.5174,-294 135.5174,-288 141.5174,-288 141.5174,-288 277.6203,-288 277.6203,-288 283.6203,-288 289.6203,-294 289.6203,-300 289.6203,-300 289.6203,-312 289.6203,-312 289.6203,-318 283.6203,-324 277.6203,-324"/>
<text text-anchor="middle" x="209.5688" y="-303" font-family="sans" font-size="10.00" fill="#000000">data_processing_non_prediction</text>
</g>
<!-- 11&#45;&gt;7 -->
<g id="edge11" class="edge">
<title>11&#45;&gt;7</title>
<path fill="none" stroke="#c0c0c0" stroke-width="2" d="M164.8832,-287.9964C141.1689,-278.41 111.3267,-266.2965 76.7404,-252.0529"/>
<polygon fill="#c0c0c0" stroke="#c0c0c0" stroke-width="2" points="77.9348,-248.7596 67.3557,-248.1836 75.2666,-255.2311 77.9348,-248.7596"/>
</g>
<!-- 11&#45;&gt;8 -->
<g id="edge12" class="edge">
<title>11&#45;&gt;8</title>
<path fill="none" stroke="#c0c0c0" stroke-width="2" d="M192.4096,-287.8314C184.4177,-279.3694 174.765,-269.1489 166.0272,-259.8971"/>
<polygon fill="#c0c0c0" stroke="#c0c0c0" stroke-width="2" points="168.37,-257.2802 158.9592,-252.4133 163.2809,-262.0866 168.37,-257.2802"/>
</g>
<!-- 11&#45;&gt;9 -->
<g id="edge13" class="edge">
<title>11&#45;&gt;9</title>
<path fill="none" stroke="#c0c0c0" stroke-width="2" d="M230.7656,-287.8314C241.0123,-279.0485 253.4691,-268.3712 264.5785,-258.8489"/>
<polygon fill="#c0c0c0" stroke="#c0c0c0" stroke-width="2" points="267.0641,-261.3282 272.3789,-252.1628 262.5085,-256.0134 267.0641,-261.3282"/>
</g>
<!-- 12 -->
<g id="node13" class="node">
<title>12</title>
<path fill="none" stroke="#d88556" stroke-width="2" d="M443.3495,-324C443.3495,-324 353.7882,-324 353.7882,-324 347.7882,-324 341.7882,-318 341.7882,-312 341.7882,-312 341.7882,-300 341.7882,-300 341.7882,-294 347.7882,-288 353.7882,-288 353.7882,-288 443.3495,-288 443.3495,-288 449.3495,-288 455.3495,-294 455.3495,-300 455.3495,-300 455.3495,-312 455.3495,-312 455.3495,-318 449.3495,-324 443.3495,-324"/>
<text text-anchor="middle" x="398.5688" y="-303" font-family="sans" font-size="10.00" fill="#000000">prediction_processing</text>
</g>
<!-- 12&#45;&gt;10 -->
<g id="edge14" class="edge">
<title>12&#45;&gt;10</title>
<path fill="none" stroke="#c0c0c0" stroke-width="2" d="M407.4008,-287.8314C411.2675,-279.8771 415.8895,-270.369 420.1656,-261.5723"/>
<polygon fill="#c0c0c0" stroke="#c0c0c0" stroke-width="2" points="423.3938,-262.9371 424.618,-252.4133 417.0982,-259.8768 423.3938,-262.9371"/>
</g>
<!-- 13 -->
<g id="node14" class="node">
<title>13</title>
<path fill="none" stroke="#56d8a9" stroke-width="2" d="M312.6608,-396C312.6608,-396 260.4769,-396 260.4769,-396 254.4769,-396 248.4769,-390 248.4769,-384 248.4769,-384 248.4769,-372 248.4769,-372 248.4769,-366 254.4769,-360 260.4769,-360 260.4769,-360 312.6608,-360 312.6608,-360 318.6608,-360 324.6608,-366 324.6608,-372 324.6608,-372 324.6608,-384 324.6608,-384 324.6608,-390 318.6608,-396 312.6608,-396"/>
<text text-anchor="middle" x="286.5688" y="-375" font-family="sans" font-size="10.00" fill="#000000">data_retrieval</text>
</g>
<!-- 13&#45;&gt;11 -->
<g id="edge15" class="edge">
<title>13&#45;&gt;11</title>
<path fill="none" stroke="#c0c0c0" stroke-width="2" d="M267.1385,-359.8314C257.8369,-351.1337 246.5485,-340.5783 236.4403,-331.1265"/>
<polygon fill="#c0c0c0" stroke="#c0c0c0" stroke-width="2" points="238.6877,-328.4363 228.993,-324.1628 233.9068,-333.5493 238.6877,-328.4363"/>
</g>
<!-- 13&#45;&gt;12 -->
<g id="edge16" class="edge">
<title>13&#45;&gt;12</title>
<path fill="none" stroke="#c0c0c0" stroke-width="2" d="M314.8312,-359.8314C329.024,-350.7074 346.397,-339.539 361.6324,-329.7449"/>
<polygon fill="#c0c0c0" stroke="#c0c0c0" stroke-width="2" points="363.7964,-332.5146 370.3156,-324.1628 360.0111,-326.6263 363.7964,-332.5146"/>
</g>
</g>
</svg>
