<?xml version="1.0" encoding="UTF-8" standalone="no"?>
<!DOCTYPE svg PUBLIC "-//W3C//DTD SVG 1.1//EN"
 "http://www.w3.org/Graphics/SVG/1.1/DTD/svg11.dtd">
<!-- Generated by graphviz version 2.40.1 (20161225.0304)
 -->
<!-- Title: snakemake_dag Pages: 1 -->
<svg width="486pt" height="404pt"
 viewBox="0.00 0.00 485.60 404.00" xmlns="http://www.w3.org/2000/svg" xmlns:xlink="http://www.w3.org/1999/xlink">
<g id="graph0" class="graph" transform="scale(1 1) rotate(0) translate(4 400)">
<title>snakemake_dag</title>
<polygon fill="#ffffff" stroke="transparent" points="-4,4 -4,-400 481.603,-400 481.603,4 -4,4"/>
<!-- 0 -->
<g id="node1" class="node">
<title>0</title>
<path fill="none" stroke="#c6d856" stroke-width="2" d="M215.5688,-36C215.5688,-36 185.5688,-36 185.5688,-36 179.5688,-36 173.5688,-30 173.5688,-24 173.5688,-24 173.5688,-12 173.5688,-12 173.5688,-6 179.5688,0 185.5688,0 185.5688,0 215.5688,0 215.5688,0 221.5688,0 227.5688,-6 227.5688,-12 227.5688,-12 227.5688,-24 227.5688,-24 227.5688,-30 221.5688,-36 215.5688,-36"/>
<text text-anchor="middle" x="200.5688" y="-15" font-family="sans" font-size="10.00" fill="#000000">all</text>
</g>
<!-- 1 -->
<g id="node2" class="node">
<title>1</title>
<path fill="none" stroke="#56a2d8" stroke-width="2" d="M408.6752,-108C408.6752,-108 346.4625,-108 346.4625,-108 340.4625,-108 334.4625,-102 334.4625,-96 334.4625,-96 334.4625,-84 334.4625,-84 334.4625,-78 340.4625,-72 346.4625,-72 346.4625,-72 408.6752,-72 408.6752,-72 414.6752,-72 420.6752,-78 420.6752,-84 420.6752,-84 420.6752,-96 420.6752,-96 420.6752,-102 414.6752,-108 408.6752,-108"/>
<text text-anchor="middle" x="377.5688" y="-87" font-family="sans" font-size="10.00" fill="#000000">ordination_plots</text>
</g>
<!-- 1&#45;&gt;0 -->
<g id="edge1" class="edge">
<title>1&#45;&gt;0</title>
<path fill="none" stroke="#c0c0c0" stroke-width="2" d="M334.2698,-72.3868C304.5158,-60.2835 265.444,-44.3899 237.2293,-32.9127"/>
<polygon fill="#c0c0c0" stroke="#c0c0c0" stroke-width="2" points="238.317,-29.5767 227.7353,-29.0507 235.6794,-36.0608 238.317,-29.5767"/>
</g>
<!-- 2 -->
<g id="node3" class="node">
<title>2</title>
<path fill="none" stroke="#d88556" stroke-width="2" d="M281.6128,-108C281.6128,-108 219.5249,-108 219.5249,-108 213.5249,-108 207.5249,-102 207.5249,-96 207.5249,-96 207.5249,-84 207.5249,-84 207.5249,-78 213.5249,-72 219.5249,-72 219.5249,-72 281.6128,-72 281.6128,-72 287.6128,-72 293.6128,-78 293.6128,-84 293.6128,-84 293.6128,-96 293.6128,-96 293.6128,-102 287.6128,-108 281.6128,-108"/>
<text text-anchor="middle" x="250.5688" y="-87" font-family="sans" font-size="10.00" fill="#000000">prediction_plots</text>
</g>
<!-- 2&#45;&gt;0 -->
<g id="edge4" class="edge">
<title>2&#45;&gt;0</title>
<path fill="none" stroke="#c0c0c0" stroke-width="2" d="M237.9517,-71.8314C232.2517,-63.6232 225.4026,-53.7606 219.1329,-44.7323"/>
<polygon fill="#c0c0c0" stroke="#c0c0c0" stroke-width="2" points="221.9346,-42.6306 213.3558,-36.4133 216.185,-46.6234 221.9346,-42.6306"/>
</g>
<!-- 3 -->
<g id="node4" class="node">
<title>3</title>
<path fill="none" stroke="#d8bc56" stroke-width="2" d="M98.3913,-108C98.3913,-108 28.7464,-108 28.7464,-108 22.7464,-108 16.7464,-102 16.7464,-96 16.7464,-96 16.7464,-84 16.7464,-84 16.7464,-78 22.7464,-72 28.7464,-72 28.7464,-72 98.3913,-72 98.3913,-72 104.3913,-72 110.3913,-78 110.3913,-84 110.3913,-84 110.3913,-96 110.3913,-96 110.3913,-102 104.3913,-108 98.3913,-108"/>
<text text-anchor="middle" x="63.5688" y="-87" font-family="sans" font-size="10.00" fill="#000000">sparse_cca_plots</text>
</g>
<!-- 3&#45;&gt;0 -->
<g id="edge3" class="edge">
<title>3&#45;&gt;0</title>
<path fill="none" stroke="#c0c0c0" stroke-width="2" d="M98.1397,-71.8314C118.3493,-61.2103 143.8302,-47.8188 164.3215,-37.0497"/>
<polygon fill="#c0c0c0" stroke="#c0c0c0" stroke-width="2" points="166.1248,-40.056 173.3485,-32.3056 162.8682,-33.8596 166.1248,-40.056"/>
</g>
<!-- 4 -->
<g id="node5" class="node">
<title>4</title>
<path fill="none" stroke="#56d863" stroke-width="2" d="M196.4728,-180C196.4728,-180 80.6649,-180 80.6649,-180 74.6649,-180 68.6649,-174 68.6649,-168 68.6649,-168 68.6649,-156 68.6649,-156 68.6649,-150 74.6649,-144 80.6649,-144 80.6649,-144 196.4728,-144 196.4728,-144 202.4728,-144 208.4728,-150 208.4728,-156 208.4728,-156 208.4728,-168 208.4728,-168 208.4728,-174 202.4728,-180 196.4728,-180"/>
<text text-anchor="middle" x="138.5688" y="-159" font-family="sans" font-size="10.00" fill="#000000">spearman_correlation_plots</text>
</g>
<!-- 4&#45;&gt;0 -->
<g id="edge2" class="edge">
<title>4&#45;&gt;0</title>
<path fill="none" stroke="#c0c0c0" stroke-width="2" d="M146.4212,-143.7623C157.0893,-118.9846 176.2548,-74.4714 188.6881,-45.5939"/>
<polygon fill="#c0c0c0" stroke="#c0c0c0" stroke-width="2" points="192.0403,-46.6586 192.7803,-36.0896 185.6109,-43.8903 192.0403,-46.6586"/>
</g>
<!-- 5 -->
<g id="node6" class="node">
<title>5</title>
<path fill="none" stroke="#56d8a9" stroke-width="2" d="M431.2831,-180C431.2831,-180 347.8546,-180 347.8546,-180 341.8546,-180 335.8546,-174 335.8546,-168 335.8546,-168 335.8546,-156 335.8546,-156 335.8546,-150 341.8546,-144 347.8546,-144 347.8546,-144 431.2831,-144 431.2831,-144 437.2831,-144 443.2831,-150 443.2831,-156 443.2831,-156 443.2831,-168 443.2831,-168 443.2831,-174 437.2831,-180 431.2831,-180"/>
<text text-anchor="middle" x="389.5688" y="-159" font-family="sans" font-size="10.00" fill="#000000">procrustes_analyses</text>
</g>
<!-- 5&#45;&gt;1 -->
<g id="edge5" class="edge">
<title>5&#45;&gt;1</title>
<path fill="none" stroke="#c0c0c0" stroke-width="2" d="M386.5407,-143.8314C385.2573,-136.131 383.7312,-126.9743 382.305,-118.4166"/>
<polygon fill="#c0c0c0" stroke="#c0c0c0" stroke-width="2" points="385.7342,-117.7018 380.6377,-108.4133 378.8294,-118.8526 385.7342,-117.7018"/>
</g>
<!-- 6 -->
<g id="node7" class="node">
<title>6</title>
<path fill="none" stroke="#d85656" stroke-width="2" d="M297.3349,-180C297.3349,-180 237.8028,-180 237.8028,-180 231.8028,-180 225.8028,-174 225.8028,-168 225.8028,-168 225.8028,-156 225.8028,-156 225.8028,-150 231.8028,-144 237.8028,-144 237.8028,-144 297.3349,-144 297.3349,-144 303.3349,-144 309.3349,-150 309.3349,-156 309.3349,-156 309.3349,-168 309.3349,-168 309.3349,-174 303.3349,-180 297.3349,-180"/>
<text text-anchor="middle" x="267.5688" y="-159" font-family="sans" font-size="10.00" fill="#000000">prediction_eval</text>
</g>
<!-- 6&#45;&gt;2 -->
<g id="edge6" class="edge">
<title>6&#45;&gt;2</title>
<path fill="none" stroke="#c0c0c0" stroke-width="2" d="M263.279,-143.8314C261.4609,-136.131 259.2989,-126.9743 257.2783,-118.4166"/>
<polygon fill="#c0c0c0" stroke="#c0c0c0" stroke-width="2" points="260.6208,-117.3414 254.9164,-108.4133 253.8081,-118.95 260.6208,-117.3414"/>
</g>
<!-- 7 -->
<g id="node8" class="node">
<title>7</title>
<path fill="none" stroke="#d8a456" stroke-width="2" d="M55.2067,-252C55.2067,-252 11.931,-252 11.931,-252 5.931,-252 -.069,-246 -.069,-240 -.069,-240 -.069,-228 -.069,-228 -.069,-222 5.931,-216 11.931,-216 11.931,-216 55.2067,-216 55.2067,-216 61.2067,-216 67.2067,-222 67.2067,-228 67.2067,-228 67.2067,-240 67.2067,-240 67.2067,-246 61.2067,-252 55.2067,-252"/>
<text text-anchor="middle" x="33.5688" y="-231" font-family="sans" font-size="10.00" fill="#000000">sparse_cca</text>
</g>
<!-- 7&#45;&gt;3 -->
<g id="edge7" class="edge">
<title>7&#45;&gt;3</title>
<path fill="none" stroke="#c0c0c0" stroke-width="2" d="M37.3684,-215.7623C42.5078,-191.0928 51.7231,-146.8598 57.7411,-117.9731"/>
<polygon fill="#c0c0c0" stroke="#c0c0c0" stroke-width="2" points="61.187,-118.5933 59.8002,-108.0896 54.3341,-117.1656 61.187,-118.5933"/>
</g>
<!-- 8 -->
<g id="node9" class="node">
<title>8</title>
<path fill="none" stroke="#56d0d8" stroke-width="2" d="M185.7879,-252C185.7879,-252 97.3497,-252 97.3497,-252 91.3497,-252 85.3497,-246 85.3497,-240 85.3497,-240 85.3497,-228 85.3497,-228 85.3497,-222 91.3497,-216 97.3497,-216 97.3497,-216 185.7879,-216 185.7879,-216 191.7879,-216 197.7879,-222 197.7879,-228 197.7879,-228 197.7879,-240 197.7879,-240 197.7879,-246 191.7879,-252 185.7879,-252"/>
<text text-anchor="middle" x="141.5688" y="-231" font-family="sans" font-size="10.00" fill="#000000">spearman_correlation</text>
</g>
<!-- 8&#45;&gt;4 -->
<g id="edge8" class="edge">
<title>8&#45;&gt;4</title>
<path fill="none" stroke="#c0c0c0" stroke-width="2" d="M140.8118,-215.8314C140.491,-208.131 140.1094,-198.9743 139.7529,-190.4166"/>
<polygon fill="#c0c0c0" stroke="#c0c0c0" stroke-width="2" points="143.2494,-190.2589 139.3361,-180.4133 136.2555,-190.5503 143.2494,-190.2589"/>
</g>
<!-- 9 -->
<g id="node10" class="node">
<title>9</title>
<path fill="none" stroke="#56d892" stroke-width="2" d="M465.6372,-252C465.6372,-252 333.5005,-252 333.5005,-252 327.5005,-252 321.5005,-246 321.5005,-240 321.5005,-240 321.5005,-228 321.5005,-228 321.5005,-222 327.5005,-216 333.5005,-216 333.5005,-216 465.6372,-216 465.6372,-216 471.6372,-216 477.6372,-222 477.6372,-228 477.6372,-228 477.6372,-240 477.6372,-240 477.6372,-246 471.6372,-252 465.6372,-252"/>
<text text-anchor="middle" x="399.5688" y="-231" font-family="sans" font-size="10.00" fill="#000000">constructing_distance_matrices</text>
</g>
<!-- 9&#45;&gt;5 -->
<g id="edge9" class="edge">
<title>9&#45;&gt;5</title>
<path fill="none" stroke="#c0c0c0" stroke-width="2" d="M397.0454,-215.8314C395.9759,-208.131 394.7042,-198.9743 393.5156,-190.4166"/>
<polygon fill="#c0c0c0" stroke="#c0c0c0" stroke-width="2" points="396.9687,-189.8367 392.1262,-180.4133 390.0353,-190.7997 396.9687,-189.8367"/>
</g>
<!-- 10 -->
<g id="node11" class="node">
<title>10</title>
<path fill="none" stroke="#56d8c9" stroke-width="2" d="M291.2734,-252C291.2734,-252 227.8642,-252 227.8642,-252 221.8642,-252 215.8642,-246 215.8642,-240 215.8642,-240 215.8642,-228 215.8642,-228 215.8642,-222 221.8642,-216 227.8642,-216 227.8642,-216 291.2734,-216 291.2734,-216 297.2734,-216 303.2734,-222 303.2734,-228 303.2734,-228 303.2734,-240 303.2734,-240 303.2734,-246 297.2734,-252 291.2734,-252"/>
<text text-anchor="middle" x="259.5688" y="-231" font-family="sans" font-size="10.00" fill="#000000">cross_validation</text>
</g>
<!-- 10&#45;&gt;6 -->
<g id="edge10" class="edge">
<title>10&#45;&gt;6</title>
<path fill="none" stroke="#c0c0c0" stroke-width="2" d="M261.5876,-215.8314C262.4432,-208.131 263.4606,-198.9743 264.4114,-190.4166"/>
<polygon fill="#c0c0c0" stroke="#c0c0c0" stroke-width="2" points="267.8971,-190.7386 265.5229,-180.4133 260.9399,-189.9656 267.8971,-190.7386"/>
</g>
<!-- 11 -->
<g id="node12" class="node">
<title>11</title>
<path fill="none" stroke="#56d87b" stroke-width="2" d="M237.3495,-324C237.3495,-324 147.7882,-324 147.7882,-324 141.7882,-324 135.7882,-318 135.7882,-312 135.7882,-312 135.7882,-300 135.7882,-300 135.7882,-294 141.7882,-288 147.7882,-288 147.7882,-288 237.3495,-288 237.3495,-288 243.3495,-288 249.3495,-294 249.3495,-300 249.3495,-300 249.3495,-312 249.3495,-312 249.3495,-318 243.3495,-324 237.3495,-324"/>
<text text-anchor="middle" x="192.5688" y="-303" font-family="sans" font-size="10.00" fill="#000000">prediction_processing</text>
</g>
<!-- 11&#45;&gt;7 -->
<g id="edge11" class="edge">
<title>11&#45;&gt;7</title>
<path fill="none" stroke="#c0c0c0" stroke-width="2" d="M152.4464,-287.8314C129.3214,-277.3597 100.2495,-264.195 76.6438,-253.5056"/>
<polygon fill="#c0c0c0" stroke="#c0c0c0" stroke-width="2" points="77.7813,-250.1786 67.2279,-249.2418 74.8937,-256.5553 77.7813,-250.1786"/>
</g>
<!-- 11&#45;&gt;8 -->
<g id="edge12" class="edge">
<title>11&#45;&gt;8</title>
<path fill="none" stroke="#c0c0c0" stroke-width="2" d="M179.6994,-287.8314C173.8853,-279.6232 166.8992,-269.7606 160.5042,-260.7323"/>
<polygon fill="#c0c0c0" stroke="#c0c0c0" stroke-width="2" points="163.2479,-258.5505 154.6116,-252.4133 157.5357,-262.5966 163.2479,-258.5505"/>
</g>
<!-- 11&#45;&gt;10 -->
<g id="edge14" class="edge">
<title>11&#45;&gt;10</title>
<path fill="none" stroke="#c0c0c0" stroke-width="2" d="M209.4758,-287.8314C217.3501,-279.3694 226.8608,-269.1489 235.4702,-259.8971"/>
<polygon fill="#c0c0c0" stroke="#c0c0c0" stroke-width="2" points="238.1842,-262.1183 242.4343,-252.4133 233.0597,-257.3497 238.1842,-262.1183"/>
</g>
<!-- 12 -->
<g id="node13" class="node">
<title>12</title>
<path fill="none" stroke="#97d856" stroke-width="2" d="M441.6203,-324C441.6203,-324 305.5174,-324 305.5174,-324 299.5174,-324 293.5174,-318 293.5174,-312 293.5174,-312 293.5174,-300 293.5174,-300 293.5174,-294 299.5174,-288 305.5174,-288 305.5174,-288 441.6203,-288 441.6203,-288 447.6203,-288 453.6203,-294 453.6203,-300 453.6203,-300 453.6203,-312 453.6203,-312 453.6203,-318 447.6203,-324 441.6203,-324"/>
<text text-anchor="middle" x="373.5688" y="-303" font-family="sans" font-size="10.00" fill="#000000">data_processing_non_prediction</text>
</g>
<!-- 12&#45;&gt;9 -->
<g id="edge13" class="edge">
<title>12&#45;&gt;9</title>
<path fill="none" stroke="#c0c0c0" stroke-width="2" d="M380.1297,-287.8314C382.9716,-279.9617 386.3626,-270.5712 389.5107,-261.8533"/>
<polygon fill="#c0c0c0" stroke="#c0c0c0" stroke-width="2" points="392.815,-263.0076 392.9196,-252.4133 386.2312,-260.63 392.815,-263.0076"/>
</g>
<!-- 13 -->
<g id="node14" class="node">
<title>13</title>
<path fill="none" stroke="#61d856" stroke-width="2" d="M295.6608,-396C295.6608,-396 243.4769,-396 243.4769,-396 237.4769,-396 231.4769,-390 231.4769,-384 231.4769,-384 231.4769,-372 231.4769,-372 231.4769,-366 237.4769,-360 243.4769,-360 243.4769,-360 295.6608,-360 295.6608,-360 301.6608,-360 307.6608,-366 307.6608,-372 307.6608,-372 307.6608,-384 307.6608,-384 307.6608,-390 301.6608,-396 295.6608,-396"/>
<text text-anchor="middle" x="269.5688" y="-375" font-family="sans" font-size="10.00" fill="#000000">data_retrieval</text>
</g>
<!-- 13&#45;&gt;11 -->
<g id="edge15" class="edge">
<title>13&#45;&gt;11</title>
<path fill="none" stroke="#c0c0c0" stroke-width="2" d="M250.1385,-359.8314C240.8369,-351.1337 229.5485,-340.5783 219.4403,-331.1265"/>
<polygon fill="#c0c0c0" stroke="#c0c0c0" stroke-width="2" points="221.6877,-328.4363 211.993,-324.1628 216.9068,-333.5493 221.6877,-328.4363"/>
</g>
<!-- 13&#45;&gt;12 -->
<g id="edge16" class="edge">
<title>13&#45;&gt;12</title>
<path fill="none" stroke="#c0c0c0" stroke-width="2" d="M295.8124,-359.8314C308.8683,-350.7927 324.8223,-339.7476 338.8736,-330.0198"/>
<polygon fill="#c0c0c0" stroke="#c0c0c0" stroke-width="2" points="341.104,-332.7326 347.3337,-324.1628 337.1195,-326.9773 341.104,-332.7326"/>
</g>
</g>
</svg>
