<?xml version="1.0" encoding="UTF-8" standalone="no"?>
<!DOCTYPE svg PUBLIC "-//W3C//DTD SVG 1.1//EN"
 "http://www.w3.org/Graphics/SVG/1.1/DTD/svg11.dtd">
<!-- Generated by graphviz version 2.40.1 (20161225.0304)
 -->
<!-- Title: snakemake_dag Pages: 1 -->
<svg width="437pt" height="404pt"
 viewBox="0.00 0.00 436.76 404.00" xmlns="http://www.w3.org/2000/svg" xmlns:xlink="http://www.w3.org/1999/xlink">
<g id="graph0" class="graph" transform="scale(1 1) rotate(0) translate(4 400)">
<title>snakemake_dag</title>
<polygon fill="#ffffff" stroke="transparent" points="-4,4 -4,-400 432.7632,-400 432.7632,4 -4,4"/>
<!-- 0 -->
<g id="node1" class="node">
<title>0</title>
<path fill="none" stroke="#d8bc56" stroke-width="2" d="M223.9111,-36C223.9111,-36 193.9111,-36 193.9111,-36 187.9111,-36 181.9111,-30 181.9111,-24 181.9111,-24 181.9111,-12 181.9111,-12 181.9111,-6 187.9111,0 193.9111,0 193.9111,0 223.9111,0 223.9111,0 229.9111,0 235.9111,-6 235.9111,-12 235.9111,-12 235.9111,-24 235.9111,-24 235.9111,-30 229.9111,-36 223.9111,-36"/>
<text text-anchor="middle" x="208.9111" y="-15" font-family="sans" font-size="10.00" fill="#000000">all</text>
</g>
<!-- 1 -->
<g id="node2" class="node">
<title>1</title>
<path fill="none" stroke="#5673d8" stroke-width="2" d="M306.0175,-108C306.0175,-108 243.8048,-108 243.8048,-108 237.8048,-108 231.8048,-102 231.8048,-96 231.8048,-96 231.8048,-84 231.8048,-84 231.8048,-78 237.8048,-72 243.8048,-72 243.8048,-72 306.0175,-72 306.0175,-72 312.0175,-72 318.0175,-78 318.0175,-84 318.0175,-84 318.0175,-96 318.0175,-96 318.0175,-102 312.0175,-108 306.0175,-108"/>
<text text-anchor="middle" x="274.9111" y="-87" font-family="sans" font-size="10.00" fill="#000000">ordination_plots</text>
</g>
<!-- 1&#45;&gt;0 -->
<g id="edge4" class="edge">
<title>1&#45;&gt;0</title>
<path fill="none" stroke="#c0c0c0" stroke-width="2" d="M258.2565,-71.8314C250.4997,-63.3694 241.131,-53.1489 232.6501,-43.8971"/>
<polygon fill="#c0c0c0" stroke="#c0c0c0" stroke-width="2" points="235.1273,-41.4198 225.79,-36.4133 229.9672,-46.1499 235.1273,-41.4198"/>
</g>
<!-- 2 -->
<g id="node3" class="node">
<title>2</title>
<path fill="none" stroke="#d8a456" stroke-width="2" d="M412.9551,-108C412.9551,-108 350.8672,-108 350.8672,-108 344.8672,-108 338.8672,-102 338.8672,-96 338.8672,-96 338.8672,-84 338.8672,-84 338.8672,-78 344.8672,-72 350.8672,-72 350.8672,-72 412.9551,-72 412.9551,-72 418.9551,-72 424.9551,-78 424.9551,-84 424.9551,-84 424.9551,-96 424.9551,-96 424.9551,-102 418.9551,-108 412.9551,-108"/>
<text text-anchor="middle" x="381.9111" y="-87" font-family="sans" font-size="10.00" fill="#000000">prediction_plots</text>
</g>
<!-- 2&#45;&gt;0 -->
<g id="edge3" class="edge">
<title>2&#45;&gt;0</title>
<path fill="none" stroke="#c0c0c0" stroke-width="2" d="M338.7022,-72.0171C310.0009,-60.072 272.732,-44.5613 245.4979,-33.2269"/>
<polygon fill="#c0c0c0" stroke="#c0c0c0" stroke-width="2" points="246.53,-29.8654 235.9528,-29.2543 243.8403,-36.3281 246.53,-29.8654"/>
</g>
<!-- 3 -->
<g id="node4" class="node">
<title>3</title>
<path fill="none" stroke="#d86e56" stroke-width="2" d="M81.7336,-180C81.7336,-180 12.0887,-180 12.0887,-180 6.0887,-180 .0887,-174 .0887,-168 .0887,-168 .0887,-156 .0887,-156 .0887,-150 6.0887,-144 12.0887,-144 12.0887,-144 81.7336,-144 81.7336,-144 87.7336,-144 93.7336,-150 93.7336,-156 93.7336,-156 93.7336,-168 93.7336,-168 93.7336,-174 87.7336,-180 81.7336,-180"/>
<text text-anchor="middle" x="46.9111" y="-159" font-family="sans" font-size="10.00" fill="#000000">sparse_cca_plots</text>
</g>
<!-- 3&#45;&gt;0 -->
<g id="edge2" class="edge">
<title>3&#45;&gt;0</title>
<path fill="none" stroke="#c0c0c0" stroke-width="2" d="M45.6674,-143.9219C45.2943,-124.0107 47.7757,-92.1505 64.9111,-72 91.678,-40.5234 138.7042,-27.3693 171.7151,-21.888"/>
<polygon fill="#c0c0c0" stroke="#c0c0c0" stroke-width="2" points="172.5251,-25.3059 181.897,-20.3645 171.4891,-18.3829 172.5251,-25.3059"/>
</g>
<!-- 4 -->
<g id="node5" class="node">
<title>4</title>
<path fill="none" stroke="#d85656" stroke-width="2" d="M201.815,-108C201.815,-108 86.0072,-108 86.0072,-108 80.0072,-108 74.0072,-102 74.0072,-96 74.0072,-96 74.0072,-84 74.0072,-84 74.0072,-78 80.0072,-72 86.0072,-72 86.0072,-72 201.815,-72 201.815,-72 207.815,-72 213.815,-78 213.815,-84 213.815,-84 213.815,-96 213.815,-96 213.815,-102 207.815,-108 201.815,-108"/>
<text text-anchor="middle" x="143.9111" y="-87" font-family="sans" font-size="10.00" fill="#000000">spearman_correlation_plots</text>
</g>
<!-- 4&#45;&gt;0 -->
<g id="edge1" class="edge">
<title>4&#45;&gt;0</title>
<path fill="none" stroke="#c0c0c0" stroke-width="2" d="M160.3134,-71.8314C167.9527,-63.3694 177.1795,-53.1489 185.5318,-43.8971"/>
<polygon fill="#c0c0c0" stroke="#c0c0c0" stroke-width="2" points="188.1849,-46.1813 192.288,-36.4133 182.989,-41.4906 188.1849,-46.1813"/>
</g>
<!-- 5 -->
<g id="node6" class="node">
<title>5</title>
<path fill="none" stroke="#59d856" stroke-width="2" d="M301.6254,-180C301.6254,-180 218.1969,-180 218.1969,-180 212.1969,-180 206.1969,-174 206.1969,-168 206.1969,-168 206.1969,-156 206.1969,-156 206.1969,-150 212.1969,-144 218.1969,-144 218.1969,-144 301.6254,-144 301.6254,-144 307.6254,-144 313.6254,-150 313.6254,-156 313.6254,-156 313.6254,-168 313.6254,-168 313.6254,-174 307.6254,-180 301.6254,-180"/>
<text text-anchor="middle" x="259.9111" y="-159" font-family="sans" font-size="10.00" fill="#000000">procrustes_analyses</text>
</g>
<!-- 5&#45;&gt;1 -->
<g id="edge5" class="edge">
<title>5&#45;&gt;1</title>
<path fill="none" stroke="#c0c0c0" stroke-width="2" d="M263.6963,-143.8314C265.3005,-136.131 267.2081,-126.9743 268.991,-118.4166"/>
<polygon fill="#c0c0c0" stroke="#c0c0c0" stroke-width="2" points="272.4618,-118.9169 271.075,-108.4133 265.609,-117.4892 272.4618,-118.9169"/>
</g>
<!-- 6 -->
<g id="node7" class="node">
<title>6</title>
<path fill="none" stroke="#56d8d8" stroke-width="2" d="M412.6772,-180C412.6772,-180 353.1451,-180 353.1451,-180 347.1451,-180 341.1451,-174 341.1451,-168 341.1451,-168 341.1451,-156 341.1451,-156 341.1451,-150 347.1451,-144 353.1451,-144 353.1451,-144 412.6772,-144 412.6772,-144 418.6772,-144 424.6772,-150 424.6772,-156 424.6772,-156 424.6772,-168 424.6772,-168 424.6772,-174 418.6772,-180 412.6772,-180"/>
<text text-anchor="middle" x="382.9111" y="-159" font-family="sans" font-size="10.00" fill="#000000">prediction_eval</text>
</g>
<!-- 6&#45;&gt;2 -->
<g id="edge6" class="edge">
<title>6&#45;&gt;2</title>
<path fill="none" stroke="#c0c0c0" stroke-width="2" d="M382.6588,-143.8314C382.5518,-136.131 382.4247,-126.9743 382.3058,-118.4166"/>
<polygon fill="#c0c0c0" stroke="#c0c0c0" stroke-width="2" points="385.8055,-118.3637 382.1669,-108.4133 378.8062,-118.4609 385.8055,-118.3637"/>
</g>
<!-- 7 -->
<g id="node8" class="node">
<title>7</title>
<path fill="none" stroke="#56c1d8" stroke-width="2" d="M73.549,-324C73.549,-324 30.2733,-324 30.2733,-324 24.2733,-324 18.2733,-318 18.2733,-312 18.2733,-312 18.2733,-300 18.2733,-300 18.2733,-294 24.2733,-288 30.2733,-288 30.2733,-288 73.549,-288 73.549,-288 79.549,-288 85.549,-294 85.549,-300 85.549,-300 85.549,-312 85.549,-312 85.549,-318 79.549,-324 73.549,-324"/>
<text text-anchor="middle" x="51.9111" y="-303" font-family="sans" font-size="10.00" fill="#000000">sparse_cca</text>
</g>
<!-- 7&#45;&gt;3 -->
<g id="edge7" class="edge">
<title>7&#45;&gt;3</title>
<path fill="none" stroke="#c0c0c0" stroke-width="2" d="M51.2779,-287.7623C50.4251,-263.201 48.8989,-219.2474 47.8956,-190.3541"/>
<polygon fill="#c0c0c0" stroke="#c0c0c0" stroke-width="2" points="51.3842,-189.9621 47.5392,-180.0896 44.3885,-190.2051 51.3842,-189.9621"/>
</g>
<!-- 8 -->
<g id="node9" class="node">
<title>8</title>
<path fill="none" stroke="#56a2d8" stroke-width="2" d="M205.1302,-324C205.1302,-324 116.692,-324 116.692,-324 110.692,-324 104.692,-318 104.692,-312 104.692,-312 104.692,-300 104.692,-300 104.692,-294 110.692,-288 116.692,-288 116.692,-288 205.1302,-288 205.1302,-288 211.1302,-288 217.1302,-294 217.1302,-300 217.1302,-300 217.1302,-312 217.1302,-312 217.1302,-318 211.1302,-324 205.1302,-324"/>
<text text-anchor="middle" x="160.9111" y="-303" font-family="sans" font-size="10.00" fill="#000000">spearman_correlation</text>
</g>
<!-- 8&#45;&gt;4 -->
<g id="edge8" class="edge">
<title>8&#45;&gt;4</title>
<path fill="none" stroke="#c0c0c0" stroke-width="2" d="M159.491,-287.9555C156.5285,-250.3144 149.6712,-163.1867 146.1246,-118.1246"/>
<polygon fill="#c0c0c0" stroke="#c0c0c0" stroke-width="2" points="149.6131,-117.8396 145.3392,-108.1451 142.6347,-118.3889 149.6131,-117.8396"/>
</g>
<!-- 9 -->
<g id="node10" class="node">
<title>9</title>
<path fill="none" stroke="#a7d856" stroke-width="2" d="M310.9795,-252C310.9795,-252 178.8428,-252 178.8428,-252 172.8428,-252 166.8428,-246 166.8428,-240 166.8428,-240 166.8428,-228 166.8428,-228 166.8428,-222 172.8428,-216 178.8428,-216 178.8428,-216 310.9795,-216 310.9795,-216 316.9795,-216 322.9795,-222 322.9795,-228 322.9795,-228 322.9795,-240 322.9795,-240 322.9795,-246 316.9795,-252 310.9795,-252"/>
<text text-anchor="middle" x="244.9111" y="-231" font-family="sans" font-size="10.00" fill="#000000">constructing_distance_matrices</text>
</g>
<!-- 9&#45;&gt;5 -->
<g id="edge9" class="edge">
<title>9&#45;&gt;5</title>
<path fill="none" stroke="#c0c0c0" stroke-width="2" d="M248.6963,-215.8314C250.3005,-208.131 252.2081,-198.9743 253.991,-190.4166"/>
<polygon fill="#c0c0c0" stroke="#c0c0c0" stroke-width="2" points="257.4618,-190.9169 256.075,-180.4133 250.609,-189.4892 257.4618,-190.9169"/>
</g>
<!-- 10 -->
<g id="node11" class="node">
<title>10</title>
<path fill="none" stroke="#568ad8" stroke-width="2" d="M416.6157,-252C416.6157,-252 353.2065,-252 353.2065,-252 347.2065,-252 341.2065,-246 341.2065,-240 341.2065,-240 341.2065,-228 341.2065,-228 341.2065,-222 347.2065,-216 353.2065,-216 353.2065,-216 416.6157,-216 416.6157,-216 422.6157,-216 428.6157,-222 428.6157,-228 428.6157,-228 428.6157,-240 428.6157,-240 428.6157,-246 422.6157,-252 416.6157,-252"/>
<text text-anchor="middle" x="384.9111" y="-231" font-family="sans" font-size="10.00" fill="#000000">cross_validation</text>
</g>
<!-- 10&#45;&gt;6 -->
<g id="edge10" class="edge">
<title>10&#45;&gt;6</title>
<path fill="none" stroke="#c0c0c0" stroke-width="2" d="M384.4064,-215.8314C384.1925,-208.131 383.9382,-198.9743 383.7005,-190.4166"/>
<polygon fill="#c0c0c0" stroke="#c0c0c0" stroke-width="2" points="387.199,-190.3122 383.4226,-180.4133 380.2017,-190.5066 387.199,-190.3122"/>
</g>
<!-- 11 -->
<g id="node12" class="node">
<title>11</title>
<path fill="none" stroke="#70d856" stroke-width="2" d="M229.003,-396C229.003,-396 176.8192,-396 176.8192,-396 170.8192,-396 164.8192,-390 164.8192,-384 164.8192,-384 164.8192,-372 164.8192,-372 164.8192,-366 170.8192,-360 176.8192,-360 176.8192,-360 229.003,-360 229.003,-360 235.003,-360 241.003,-366 241.003,-372 241.003,-372 241.003,-384 241.003,-384 241.003,-390 235.003,-396 229.003,-396"/>
<text text-anchor="middle" x="202.9111" y="-375" font-family="sans" font-size="10.00" fill="#000000">data_retrieval</text>
</g>
<!-- 11&#45;&gt;7 -->
<g id="edge11" class="edge">
<title>11&#45;&gt;7</title>
<path fill="none" stroke="#c0c0c0" stroke-width="2" d="M164.8075,-359.8314C143.4787,-349.6614 116.823,-336.9513 94.7691,-326.4356"/>
<polygon fill="#c0c0c0" stroke="#c0c0c0" stroke-width="2" points="96.161,-323.2218 85.6281,-322.077 93.1481,-329.5403 96.161,-323.2218"/>
</g>
<!-- 11&#45;&gt;8 -->
<g id="edge12" class="edge">
<title>11&#45;&gt;8</title>
<path fill="none" stroke="#c0c0c0" stroke-width="2" d="M192.3128,-359.8314C187.6234,-351.7925 182.0083,-342.1666 176.8313,-333.2918"/>
<polygon fill="#c0c0c0" stroke="#c0c0c0" stroke-width="2" points="179.7142,-331.2875 171.6522,-324.4133 173.6677,-334.8146 179.7142,-331.2875"/>
</g>
<!-- 11&#45;&gt;9 -->
<g id="edge13" class="edge">
<title>11&#45;&gt;9</title>
<path fill="none" stroke="#c0c0c0" stroke-width="2" d="M211.6945,-359.8405C216.4192,-349.5181 222.0512,-336.2454 225.9111,-324 232.3023,-303.7242 237.1844,-280.1982 240.3986,-262.2853"/>
<polygon fill="#c0c0c0" stroke="#c0c0c0" stroke-width="2" points="243.8881,-262.6455 242.14,-252.1959 236.9901,-261.4549 243.8881,-262.6455"/>
</g>
<!-- 12 -->
<g id="node13" class="node">
<title>12</title>
<path fill="none" stroke="#56d8a2" stroke-width="2" d="M401.6918,-324C401.6918,-324 312.1305,-324 312.1305,-324 306.1305,-324 300.1305,-318 300.1305,-312 300.1305,-312 300.1305,-300 300.1305,-300 300.1305,-294 306.1305,-288 312.1305,-288 312.1305,-288 401.6918,-288 401.6918,-288 407.6918,-288 413.6918,-294 413.6918,-300 413.6918,-300 413.6918,-312 413.6918,-312 413.6918,-318 407.6918,-324 401.6918,-324"/>
<text text-anchor="middle" x="356.9111" y="-303" font-family="sans" font-size="10.00" fill="#000000">prediction_processing</text>
</g>
<!-- 11&#45;&gt;12 -->
<g id="edge15" class="edge">
<title>11&#45;&gt;12</title>
<path fill="none" stroke="#c0c0c0" stroke-width="2" d="M241.3746,-360.0171C261.9542,-350.3954 287.4821,-338.4603 309.3041,-328.2578"/>
<polygon fill="#c0c0c0" stroke="#c0c0c0" stroke-width="2" points="310.8278,-331.4091 318.4043,-324.0032 307.8631,-325.068 310.8278,-331.4091"/>
</g>
<!-- 12&#45;&gt;10 -->
<g id="edge14" class="edge">
<title>12&#45;&gt;10</title>
<path fill="none" stroke="#c0c0c0" stroke-width="2" d="M363.9767,-287.8314C367.0371,-279.9617 370.689,-270.5712 374.0793,-261.8533"/>
<polygon fill="#c0c0c0" stroke="#c0c0c0" stroke-width="2" points="377.3879,-263.0019 377.7504,-252.4133 370.8639,-260.4647 377.3879,-263.0019"/>
</g>
</g>
</svg>
