<?xml version="1.0" encoding="UTF-8" standalone="no"?>
<!DOCTYPE svg PUBLIC "-//W3C//DTD SVG 1.1//EN"
 "http://www.w3.org/Graphics/SVG/1.1/DTD/svg11.dtd">
<!-- Generated by graphviz version 2.40.1 (20161225.0304)
 -->
<!-- Title: snakemake_dag Pages: 1 -->
<svg width="489pt" height="404pt"
 viewBox="0.00 0.00 488.95 404.00" xmlns="http://www.w3.org/2000/svg" xmlns:xlink="http://www.w3.org/1999/xlink">
<g id="graph0" class="graph" transform="scale(1 1) rotate(0) translate(4 400)">
<title>snakemake_dag</title>
<polygon fill="#ffffff" stroke="transparent" points="-4,4 -4,-400 484.9453,-400 484.9453,4 -4,4"/>
<!-- 0 -->
<g id="node1" class="node">
<title>0</title>
<path fill="none" stroke="#d86e56" stroke-width="2" d="M224.9111,-36C224.9111,-36 194.9111,-36 194.9111,-36 188.9111,-36 182.9111,-30 182.9111,-24 182.9111,-24 182.9111,-12 182.9111,-12 182.9111,-6 188.9111,0 194.9111,0 194.9111,0 224.9111,0 224.9111,0 230.9111,0 236.9111,-6 236.9111,-12 236.9111,-12 236.9111,-24 236.9111,-24 236.9111,-30 230.9111,-36 224.9111,-36"/>
<text text-anchor="middle" x="209.9111" y="-15" font-family="sans" font-size="10.00" fill="#000000">all</text>
</g>
<!-- 1 -->
<g id="node2" class="node">
<title>1</title>
<path fill="none" stroke="#56d8a9" stroke-width="2" d="M422.0175,-108C422.0175,-108 359.8048,-108 359.8048,-108 353.8048,-108 347.8048,-102 347.8048,-96 347.8048,-96 347.8048,-84 347.8048,-84 347.8048,-78 353.8048,-72 359.8048,-72 359.8048,-72 422.0175,-72 422.0175,-72 428.0175,-72 434.0175,-78 434.0175,-84 434.0175,-84 434.0175,-96 434.0175,-96 434.0175,-102 428.0175,-108 422.0175,-108"/>
<text text-anchor="middle" x="390.9111" y="-87" font-family="sans" font-size="10.00" fill="#000000">ordination_plots</text>
</g>
<!-- 1&#45;&gt;0 -->
<g id="edge2" class="edge">
<title>1&#45;&gt;0</title>
<path fill="none" stroke="#c0c0c0" stroke-width="2" d="M347.5571,-72.7542C316.7374,-60.4944 275.7968,-44.2087 246.5954,-32.5927"/>
<polygon fill="#c0c0c0" stroke="#c0c0c0" stroke-width="2" points="247.7595,-29.289 237.174,-28.8449 245.1721,-35.7933 247.7595,-29.289"/>
</g>
<!-- 2 -->
<g id="node3" class="node">
<title>2</title>
<path fill="none" stroke="#d8a456" stroke-width="2" d="M306.9551,-108C306.9551,-108 244.8672,-108 244.8672,-108 238.8672,-108 232.8672,-102 232.8672,-96 232.8672,-96 232.8672,-84 232.8672,-84 232.8672,-78 238.8672,-72 244.8672,-72 244.8672,-72 306.9551,-72 306.9551,-72 312.9551,-72 318.9551,-78 318.9551,-84 318.9551,-84 318.9551,-96 318.9551,-96 318.9551,-102 312.9551,-108 306.9551,-108"/>
<text text-anchor="middle" x="275.9111" y="-87" font-family="sans" font-size="10.00" fill="#000000">prediction_plots</text>
</g>
<!-- 2&#45;&gt;0 -->
<g id="edge4" class="edge">
<title>2&#45;&gt;0</title>
<path fill="none" stroke="#c0c0c0" stroke-width="2" d="M259.2565,-71.8314C251.4997,-63.3694 242.131,-53.1489 233.6501,-43.8971"/>
<polygon fill="#c0c0c0" stroke="#c0c0c0" stroke-width="2" points="236.1273,-41.4198 226.79,-36.4133 230.9672,-46.1499 236.1273,-41.4198"/>
</g>
<!-- 3 -->
<g id="node4" class="node">
<title>3</title>
<path fill="none" stroke="#d8d356" stroke-width="2" d="M81.7336,-180C81.7336,-180 12.0887,-180 12.0887,-180 6.0887,-180 .0887,-174 .0887,-168 .0887,-168 .0887,-156 .0887,-156 .0887,-150 6.0887,-144 12.0887,-144 12.0887,-144 81.7336,-144 81.7336,-144 87.7336,-144 93.7336,-150 93.7336,-156 93.7336,-156 93.7336,-168 93.7336,-168 93.7336,-174 87.7336,-180 81.7336,-180"/>
<text text-anchor="middle" x="46.9111" y="-159" font-family="sans" font-size="10.00" fill="#000000">sparse_cca_plots</text>
</g>
<!-- 3&#45;&gt;0 -->
<g id="edge3" class="edge">
<title>3&#45;&gt;0</title>
<path fill="none" stroke="#c0c0c0" stroke-width="2" d="M45.8976,-143.9043C45.7719,-123.9772 48.6307,-92.1029 65.9111,-72 92.7669,-40.7579 139.5628,-27.5595 172.505,-22.0037"/>
<polygon fill="#c0c0c0" stroke="#c0c0c0" stroke-width="2" points="173.312,-25.4212 182.6709,-20.4552 172.2579,-18.5011 173.312,-25.4212"/>
</g>
<!-- 4 -->
<g id="node5" class="node">
<title>4</title>
<path fill="none" stroke="#56a2d8" stroke-width="2" d="M202.815,-108C202.815,-108 87.0072,-108 87.0072,-108 81.0072,-108 75.0072,-102 75.0072,-96 75.0072,-96 75.0072,-84 75.0072,-84 75.0072,-78 81.0072,-72 87.0072,-72 87.0072,-72 202.815,-72 202.815,-72 208.815,-72 214.815,-78 214.815,-84 214.815,-84 214.815,-96 214.815,-96 214.815,-102 208.815,-108 202.815,-108"/>
<text text-anchor="middle" x="144.9111" y="-87" font-family="sans" font-size="10.00" fill="#000000">spearman_correlation_plots</text>
</g>
<!-- 4&#45;&gt;0 -->
<g id="edge1" class="edge">
<title>4&#45;&gt;0</title>
<path fill="none" stroke="#c0c0c0" stroke-width="2" d="M161.3134,-71.8314C168.9527,-63.3694 178.1795,-53.1489 186.5318,-43.8971"/>
<polygon fill="#c0c0c0" stroke="#c0c0c0" stroke-width="2" points="189.1849,-46.1813 193.288,-36.4133 183.989,-41.4906 189.1849,-46.1813"/>
</g>
<!-- 5 -->
<g id="node6" class="node">
<title>5</title>
<path fill="none" stroke="#568ad8" stroke-width="2" d="M438.6254,-180C438.6254,-180 355.1969,-180 355.1969,-180 349.1969,-180 343.1969,-174 343.1969,-168 343.1969,-168 343.1969,-156 343.1969,-156 343.1969,-150 349.1969,-144 355.1969,-144 355.1969,-144 438.6254,-144 438.6254,-144 444.6254,-144 450.6254,-150 450.6254,-156 450.6254,-156 450.6254,-168 450.6254,-168 450.6254,-174 444.6254,-180 438.6254,-180"/>
<text text-anchor="middle" x="396.9111" y="-159" font-family="sans" font-size="10.00" fill="#000000">procrustes_analyses</text>
</g>
<!-- 5&#45;&gt;1 -->
<g id="edge5" class="edge">
<title>5&#45;&gt;1</title>
<path fill="none" stroke="#c0c0c0" stroke-width="2" d="M395.3971,-143.8314C394.7554,-136.131 393.9923,-126.9743 393.2792,-118.4166"/>
<polygon fill="#c0c0c0" stroke="#c0c0c0" stroke-width="2" points="396.764,-118.088 392.4456,-108.4133 389.7882,-118.6694 396.764,-118.088"/>
</g>
<!-- 6 -->
<g id="node7" class="node">
<title>6</title>
<path fill="none" stroke="#56d8c9" stroke-width="2" d="M298.6772,-180C298.6772,-180 239.1451,-180 239.1451,-180 233.1451,-180 227.1451,-174 227.1451,-168 227.1451,-168 227.1451,-156 227.1451,-156 227.1451,-150 233.1451,-144 239.1451,-144 239.1451,-144 298.6772,-144 298.6772,-144 304.6772,-144 310.6772,-150 310.6772,-156 310.6772,-156 310.6772,-168 310.6772,-168 310.6772,-174 304.6772,-180 298.6772,-180"/>
<text text-anchor="middle" x="268.9111" y="-159" font-family="sans" font-size="10.00" fill="#000000">prediction_eval</text>
</g>
<!-- 6&#45;&gt;2 -->
<g id="edge6" class="edge">
<title>6&#45;&gt;2</title>
<path fill="none" stroke="#c0c0c0" stroke-width="2" d="M270.6775,-143.8314C271.4262,-136.131 272.3164,-126.9743 273.1484,-118.4166"/>
<polygon fill="#c0c0c0" stroke="#c0c0c0" stroke-width="2" points="276.6368,-118.7051 274.121,-108.4133 269.6696,-118.0276 276.6368,-118.7051"/>
</g>
<!-- 7 -->
<g id="node8" class="node">
<title>7</title>
<path fill="none" stroke="#61d856" stroke-width="2" d="M58.549,-252C58.549,-252 15.2733,-252 15.2733,-252 9.2733,-252 3.2733,-246 3.2733,-240 3.2733,-240 3.2733,-228 3.2733,-228 3.2733,-222 9.2733,-216 15.2733,-216 15.2733,-216 58.549,-216 58.549,-216 64.549,-216 70.549,-222 70.549,-228 70.549,-228 70.549,-240 70.549,-240 70.549,-246 64.549,-252 58.549,-252"/>
<text text-anchor="middle" x="36.9111" y="-231" font-family="sans" font-size="10.00" fill="#000000">sparse_cca</text>
</g>
<!-- 7&#45;&gt;3 -->
<g id="edge7" class="edge">
<title>7&#45;&gt;3</title>
<path fill="none" stroke="#c0c0c0" stroke-width="2" d="M39.4346,-215.8314C40.5041,-208.131 41.7758,-198.9743 42.9644,-190.4166"/>
<polygon fill="#c0c0c0" stroke="#c0c0c0" stroke-width="2" points="46.4447,-190.7997 44.3537,-180.4133 39.5112,-189.8367 46.4447,-190.7997"/>
</g>
<!-- 8 -->
<g id="node9" class="node">
<title>8</title>
<path fill="none" stroke="#56d87b" stroke-width="2" d="M189.1302,-252C189.1302,-252 100.692,-252 100.692,-252 94.692,-252 88.692,-246 88.692,-240 88.692,-240 88.692,-228 88.692,-228 88.692,-222 94.692,-216 100.692,-216 100.692,-216 189.1302,-216 189.1302,-216 195.1302,-216 201.1302,-222 201.1302,-228 201.1302,-228 201.1302,-240 201.1302,-240 201.1302,-246 195.1302,-252 189.1302,-252"/>
<text text-anchor="middle" x="144.9111" y="-231" font-family="sans" font-size="10.00" fill="#000000">spearman_correlation</text>
</g>
<!-- 8&#45;&gt;3 -->
<g id="edge8" class="edge">
<title>8&#45;&gt;3</title>
<path fill="none" stroke="#c0c0c0" stroke-width="2" d="M120.1816,-215.8314C107.995,-206.8779 93.1288,-195.9558 79.98,-186.2955"/>
<polygon fill="#c0c0c0" stroke="#c0c0c0" stroke-width="2" points="81.7639,-183.263 71.6328,-180.1628 77.6193,-188.9042 81.7639,-183.263"/>
</g>
<!-- 8&#45;&gt;4 -->
<g id="edge9" class="edge">
<title>8&#45;&gt;4</title>
<path fill="none" stroke="#c0c0c0" stroke-width="2" d="M144.9111,-215.7623C144.9111,-191.201 144.9111,-147.2474 144.9111,-118.3541"/>
<polygon fill="#c0c0c0" stroke="#c0c0c0" stroke-width="2" points="148.4112,-118.0896 144.9111,-108.0896 141.4112,-118.0897 148.4112,-118.0896"/>
</g>
<!-- 9 -->
<g id="node10" class="node">
<title>9</title>
<path fill="none" stroke="#56d892" stroke-width="2" d="M468.9795,-252C468.9795,-252 336.8428,-252 336.8428,-252 330.8428,-252 324.8428,-246 324.8428,-240 324.8428,-240 324.8428,-228 324.8428,-228 324.8428,-222 330.8428,-216 336.8428,-216 336.8428,-216 468.9795,-216 468.9795,-216 474.9795,-216 480.9795,-222 480.9795,-228 480.9795,-228 480.9795,-240 480.9795,-240 480.9795,-246 474.9795,-252 468.9795,-252"/>
<text text-anchor="middle" x="402.9111" y="-231" font-family="sans" font-size="10.00" fill="#000000">constructing_distance_matrices</text>
</g>
<!-- 9&#45;&gt;5 -->
<g id="edge10" class="edge">
<title>9&#45;&gt;5</title>
<path fill="none" stroke="#c0c0c0" stroke-width="2" d="M401.3971,-215.8314C400.7554,-208.131 399.9923,-198.9743 399.2792,-190.4166"/>
<polygon fill="#c0c0c0" stroke="#c0c0c0" stroke-width="2" points="402.764,-190.088 398.4456,-180.4133 395.7882,-190.6694 402.764,-190.088"/>
</g>
<!-- 10 -->
<g id="node11" class="node">
<title>10</title>
<path fill="none" stroke="#97d856" stroke-width="2" d="M294.6157,-252C294.6157,-252 231.2065,-252 231.2065,-252 225.2065,-252 219.2065,-246 219.2065,-240 219.2065,-240 219.2065,-228 219.2065,-228 219.2065,-222 225.2065,-216 231.2065,-216 231.2065,-216 294.6157,-216 294.6157,-216 300.6157,-216 306.6157,-222 306.6157,-228 306.6157,-228 306.6157,-240 306.6157,-240 306.6157,-246 300.6157,-252 294.6157,-252"/>
<text text-anchor="middle" x="262.9111" y="-231" font-family="sans" font-size="10.00" fill="#000000">cross_validation</text>
</g>
<!-- 10&#45;&gt;6 -->
<g id="edge11" class="edge">
<title>10&#45;&gt;6</title>
<path fill="none" stroke="#c0c0c0" stroke-width="2" d="M264.4252,-215.8314C265.0669,-208.131 265.8299,-198.9743 266.5431,-190.4166"/>
<polygon fill="#c0c0c0" stroke="#c0c0c0" stroke-width="2" points="270.0341,-190.6694 267.3767,-180.4133 263.0582,-190.088 270.0341,-190.6694"/>
</g>
<!-- 11 -->
<g id="node12" class="node">
<title>11</title>
<path fill="none" stroke="#78d856" stroke-width="2" d="M240.6918,-324C240.6918,-324 151.1305,-324 151.1305,-324 145.1305,-324 139.1305,-318 139.1305,-312 139.1305,-312 139.1305,-300 139.1305,-300 139.1305,-294 145.1305,-288 151.1305,-288 151.1305,-288 240.6918,-288 240.6918,-288 246.6918,-288 252.6918,-294 252.6918,-300 252.6918,-300 252.6918,-312 252.6918,-312 252.6918,-318 246.6918,-324 240.6918,-324"/>
<text text-anchor="middle" x="195.9111" y="-303" font-family="sans" font-size="10.00" fill="#000000">prediction_processing</text>
</g>
<!-- 11&#45;&gt;7 -->
<g id="edge12" class="edge">
<title>11&#45;&gt;7</title>
<path fill="none" stroke="#c0c0c0" stroke-width="2" d="M155.7887,-287.8314C132.6637,-277.3597 103.5917,-264.195 79.9861,-253.5056"/>
<polygon fill="#c0c0c0" stroke="#c0c0c0" stroke-width="2" points="81.1235,-250.1786 70.5702,-249.2418 78.2359,-256.5553 81.1235,-250.1786"/>
</g>
<!-- 11&#45;&gt;8 -->
<g id="edge13" class="edge">
<title>11&#45;&gt;8</title>
<path fill="none" stroke="#c0c0c0" stroke-width="2" d="M183.0417,-287.8314C177.2276,-279.6232 170.2415,-269.7606 163.8465,-260.7323"/>
<polygon fill="#c0c0c0" stroke="#c0c0c0" stroke-width="2" points="166.5902,-258.5505 157.9539,-252.4133 160.878,-262.5966 166.5902,-258.5505"/>
</g>
<!-- 11&#45;&gt;10 -->
<g id="edge15" class="edge">
<title>11&#45;&gt;10</title>
<path fill="none" stroke="#c0c0c0" stroke-width="2" d="M212.8181,-287.8314C220.6924,-279.3694 230.2031,-269.1489 238.8124,-259.8971"/>
<polygon fill="#c0c0c0" stroke="#c0c0c0" stroke-width="2" points="241.5265,-262.1183 245.7766,-252.4133 236.402,-257.3497 241.5265,-262.1183"/>
</g>
<!-- 12 -->
<g id="node13" class="node">
<title>12</title>
<path fill="none" stroke="#c6d856" stroke-width="2" d="M444.9625,-324C444.9625,-324 308.8597,-324 308.8597,-324 302.8597,-324 296.8597,-318 296.8597,-312 296.8597,-312 296.8597,-300 296.8597,-300 296.8597,-294 302.8597,-288 308.8597,-288 308.8597,-288 444.9625,-288 444.9625,-288 450.9625,-288 456.9625,-294 456.9625,-300 456.9625,-300 456.9625,-312 456.9625,-312 456.9625,-318 450.9625,-324 444.9625,-324"/>
<text text-anchor="middle" x="376.9111" y="-303" font-family="sans" font-size="10.00" fill="#000000">data_processing_non_prediction</text>
</g>
<!-- 12&#45;&gt;9 -->
<g id="edge14" class="edge">
<title>12&#45;&gt;9</title>
<path fill="none" stroke="#c0c0c0" stroke-width="2" d="M383.472,-287.8314C386.3138,-279.9617 389.7049,-270.5712 392.853,-261.8533"/>
<polygon fill="#c0c0c0" stroke="#c0c0c0" stroke-width="2" points="396.1573,-263.0076 396.2619,-252.4133 389.5734,-260.63 396.1573,-263.0076"/>
</g>
<!-- 13 -->
<g id="node14" class="node">
<title>13</title>
<path fill="none" stroke="#5673d8" stroke-width="2" d="M299.003,-396C299.003,-396 246.8192,-396 246.8192,-396 240.8192,-396 234.8192,-390 234.8192,-384 234.8192,-384 234.8192,-372 234.8192,-372 234.8192,-366 240.8192,-360 246.8192,-360 246.8192,-360 299.003,-360 299.003,-360 305.003,-360 311.003,-366 311.003,-372 311.003,-372 311.003,-384 311.003,-384 311.003,-390 305.003,-396 299.003,-396"/>
<text text-anchor="middle" x="272.9111" y="-375" font-family="sans" font-size="10.00" fill="#000000">data_retrieval</text>
</g>
<!-- 13&#45;&gt;11 -->
<g id="edge16" class="edge">
<title>13&#45;&gt;11</title>
<path fill="none" stroke="#c0c0c0" stroke-width="2" d="M253.4808,-359.8314C244.1792,-351.1337 232.8907,-340.5783 222.7826,-331.1265"/>
<polygon fill="#c0c0c0" stroke="#c0c0c0" stroke-width="2" points="225.03,-328.4363 215.3353,-324.1628 220.249,-333.5493 225.03,-328.4363"/>
</g>
<!-- 13&#45;&gt;12 -->
<g id="edge17" class="edge">
<title>13&#45;&gt;12</title>
<path fill="none" stroke="#c0c0c0" stroke-width="2" d="M299.1547,-359.8314C312.2106,-350.7927 328.1646,-339.7476 342.2158,-330.0198"/>
<polygon fill="#c0c0c0" stroke="#c0c0c0" stroke-width="2" points="344.4462,-332.7326 350.6759,-324.1628 340.4617,-326.9773 344.4462,-332.7326"/>
</g>
</g>
</svg>
