<?xml version="1.0" encoding="UTF-8" standalone="no"?>
<!DOCTYPE svg PUBLIC "-//W3C//DTD SVG 1.1//EN"
 "http://www.w3.org/Graphics/SVG/1.1/DTD/svg11.dtd">
<!-- Generated by graphviz version 2.30.1 (20200304.1809)
 -->
<!-- Title: snakemake_dag Pages: 1 -->
<svg width="479pt" height="404pt"
 viewBox="0.00 0.00 479.00 404.00" xmlns="http://www.w3.org/2000/svg" xmlns:xlink="http://www.w3.org/1999/xlink">
<g id="graph0" class="graph" transform="scale(1 1) rotate(0) translate(4 400)">
<title>snakemake_dag</title>
<polygon fill="white" stroke="white" points="-4,5 -4,-400 476,-400 476,5 -4,5"/>
<!-- 0 -->
<g id="node1" class="node"><title>0</title>
<path fill="none" stroke="#56d8a9" stroke-width="2" d="M267,-36C267,-36 237,-36 237,-36 231,-36 225,-30 225,-24 225,-24 225,-12 225,-12 225,-6 231,-0 237,-0 237,-0 267,-0 267,-0 273,-0 279,-6 279,-12 279,-12 279,-24 279,-24 279,-30 273,-36 267,-36"/>
<text text-anchor="middle" x="252" y="-15.5" font-family="sans" font-size="10.00">all</text>
</g>
<!-- 1 -->
<g id="node2" class="node"><title>1</title>
<path fill="none" stroke="#d8ac56" stroke-width="2" d="M219.25,-108C219.25,-108 144.75,-108 144.75,-108 138.75,-108 132.75,-102 132.75,-96 132.75,-96 132.75,-84 132.75,-84 132.75,-78 138.75,-72 144.75,-72 144.75,-72 219.25,-72 219.25,-72 225.25,-72 231.25,-78 231.25,-84 231.25,-84 231.25,-96 231.25,-96 231.25,-102 225.25,-108 219.25,-108"/>
<text text-anchor="middle" x="182" y="-87.5" font-family="sans" font-size="10.00">add_descriptions</text>
</g>
<!-- 1&#45;&gt;0 -->
<g id="edge1" class="edge"><title>1&#45;&gt;0</title>
<path fill="none" stroke="grey" stroke-width="2" d="M199.303,-71.6966C207.865,-63.135 218.344,-52.6562 227.696,-43.3045"/>
<polygon fill="grey" stroke="grey" points="230.299,-45.6503 234.896,-36.1043 225.35,-40.7005 230.299,-45.6503"/>
</g>
<!-- 2 -->
<g id="node3" class="node"><title>2</title>
<path fill="none" stroke="#d8ac56" stroke-width="2" d="M360.25,-108C360.25,-108 285.75,-108 285.75,-108 279.75,-108 273.75,-102 273.75,-96 273.75,-96 273.75,-84 273.75,-84 273.75,-78 279.75,-72 285.75,-72 285.75,-72 360.25,-72 360.25,-72 366.25,-72 372.25,-78 372.25,-84 372.25,-84 372.25,-96 372.25,-96 372.25,-102 366.25,-108 360.25,-108"/>
<text text-anchor="middle" x="323" y="-87.5" font-family="sans" font-size="10.00">add_descriptions</text>
</g>
<!-- 2&#45;&gt;0 -->
<g id="edge2" class="edge"><title>2&#45;&gt;0</title>
<path fill="none" stroke="grey" stroke-width="2" d="M305.449,-71.6966C296.766,-63.135 286.137,-52.6562 276.652,-43.3045"/>
<polygon fill="grey" stroke="grey" points="278.927,-40.6327 269.349,-36.1043 274.012,-45.6175 278.927,-40.6327"/>
</g>
<!-- 3 -->
<g id="node4" class="node"><title>3</title>
<path fill="none" stroke="#afd856" stroke-width="2" d="M214.25,-180C214.25,-180 51.75,-180 51.75,-180 45.75,-180 39.75,-174 39.75,-168 39.75,-168 39.75,-156 39.75,-156 39.75,-150 45.75,-144 51.75,-144 51.75,-144 214.25,-144 214.25,-144 220.25,-144 226.25,-150 226.25,-156 226.25,-156 226.25,-168 226.25,-168 226.25,-174 220.25,-180 214.25,-180"/>
<text text-anchor="middle" x="133" y="-165" font-family="sans" font-size="10.00">pathway_inference</text>
<text text-anchor="middle" x="133" y="-154" font-family="sans" font-size="10.00">pathfiles: path_abun_unstrat.tsv.gz</text>
</g>
<!-- 3&#45;&gt;1 -->
<g id="edge3" class="edge"><title>3&#45;&gt;1</title>
<path fill="none" stroke="grey" stroke-width="2" d="M145.112,-143.697C150.868,-135.474 157.862,-125.483 164.206,-116.421"/>
<polygon fill="grey" stroke="grey" points="167.16,-118.304 170.027,-108.104 161.425,-114.29 167.16,-118.304"/>
</g>
<!-- 4 -->
<g id="node5" class="node"><title>4</title>
<path fill="none" stroke="#afd856" stroke-width="2" d="M429.25,-180C429.25,-180 266.75,-180 266.75,-180 260.75,-180 254.75,-174 254.75,-168 254.75,-168 254.75,-156 254.75,-156 254.75,-150 260.75,-144 266.75,-144 266.75,-144 429.25,-144 429.25,-144 435.25,-144 441.25,-150 441.25,-156 441.25,-156 441.25,-168 441.25,-168 441.25,-174 435.25,-180 429.25,-180"/>
<text text-anchor="middle" x="348" y="-165" font-family="sans" font-size="10.00">pathway_inference</text>
<text text-anchor="middle" x="348" y="-154" font-family="sans" font-size="10.00">pathfiles: path_abun_unstrat.tsv.gz</text>
</g>
<!-- 4&#45;&gt;2 -->
<g id="edge4" class="edge"><title>4&#45;&gt;2</title>
<path fill="none" stroke="grey" stroke-width="2" d="M341.82,-143.697C339.005,-135.813 335.609,-126.304 332.481,-117.546"/>
<polygon fill="grey" stroke="grey" points="335.768,-116.345 329.109,-108.104 329.176,-118.699 335.768,-116.345"/>
</g>
<!-- 5 -->
<g id="node6" class="node"><title>5</title>
<path fill="none" stroke="#56a9d8" stroke-width="2" d="M214.25,-252C214.25,-252 11.75,-252 11.75,-252 5.75,-252 -0.25,-246 -0.25,-240 -0.25,-240 -0.25,-228 -0.25,-228 -0.25,-222 5.75,-216 11.75,-216 11.75,-216 214.25,-216 214.25,-216 220.25,-216 226.25,-222 226.25,-228 226.25,-228 226.25,-240 226.25,-240 226.25,-246 220.25,-252 214.25,-252"/>
<text text-anchor="middle" x="113" y="-237" font-family="sans" font-size="10.00">generate_pred</text>
<text text-anchor="middle" x="113" y="-226" font-family="sans" font-size="10.00">predfiles: pred_metagenome_contrib.tsv.gz</text>
</g>
<!-- 5&#45;&gt;3 -->
<g id="edge5" class="edge"><title>5&#45;&gt;3</title>
<path fill="none" stroke="grey" stroke-width="2" d="M117.944,-215.697C120.172,-207.898 122.855,-198.509 125.335,-189.829"/>
<polygon fill="grey" stroke="grey" points="128.731,-190.681 128.113,-180.104 122,-188.758 128.731,-190.681"/>
</g>
<!-- 6 -->
<g id="node7" class="node"><title>6</title>
<path fill="none" stroke="#56a9d8" stroke-width="2" d="M459.25,-252C459.25,-252 256.75,-252 256.75,-252 250.75,-252 244.75,-246 244.75,-240 244.75,-240 244.75,-228 244.75,-228 244.75,-222 250.75,-216 256.75,-216 256.75,-216 459.25,-216 459.25,-216 465.25,-216 471.25,-222 471.25,-228 471.25,-228 471.25,-240 471.25,-240 471.25,-246 465.25,-252 459.25,-252"/>
<text text-anchor="middle" x="358" y="-237" font-family="sans" font-size="10.00">generate_pred</text>
<text text-anchor="middle" x="358" y="-226" font-family="sans" font-size="10.00">predfiles: pred_metagenome_contrib.tsv.gz</text>
</g>
<!-- 6&#45;&gt;4 -->
<g id="edge6" class="edge"><title>6&#45;&gt;4</title>
<path fill="none" stroke="grey" stroke-width="2" d="M355.528,-215.697C354.426,-207.983 353.102,-198.712 351.873,-190.112"/>
<polygon fill="grey" stroke="grey" points="355.323,-189.509 350.443,-180.104 348.393,-190.499 355.323,-189.509"/>
</g>
<!-- 7 -->
<g id="node8" class="node"><title>7</title>
<path fill="none" stroke="#59d856" stroke-width="2" d="M135,-324C135,-324 91,-324 91,-324 85,-324 79,-318 79,-312 79,-312 79,-300 79,-300 79,-294 85,-288 91,-288 91,-288 135,-288 135,-288 141,-288 147,-294 147,-300 147,-300 147,-312 147,-312 147,-318 141,-324 135,-324"/>
<text text-anchor="middle" x="113" y="-303.5" font-family="sans" font-size="10.00">state_pred</text>
</g>
<!-- 7&#45;&gt;5 -->
<g id="edge7" class="edge"><title>7&#45;&gt;5</title>
<path fill="none" stroke="grey" stroke-width="2" d="M113,-287.697C113,-279.983 113,-270.712 113,-262.112"/>
<polygon fill="grey" stroke="grey" points="116.5,-262.104 113,-252.104 109.5,-262.104 116.5,-262.104"/>
</g>
<!-- 8 -->
<g id="node9" class="node"><title>8</title>
<path fill="none" stroke="#59d856" stroke-width="2" d="M380,-324C380,-324 336,-324 336,-324 330,-324 324,-318 324,-312 324,-312 324,-300 324,-300 324,-294 330,-288 336,-288 336,-288 380,-288 380,-288 386,-288 392,-294 392,-300 392,-300 392,-312 392,-312 392,-318 386,-324 380,-324"/>
<text text-anchor="middle" x="358" y="-303.5" font-family="sans" font-size="10.00">state_pred</text>
</g>
<!-- 8&#45;&gt;6 -->
<g id="edge8" class="edge"><title>8&#45;&gt;6</title>
<path fill="none" stroke="grey" stroke-width="2" d="M358,-287.697C358,-279.983 358,-270.712 358,-262.112"/>
<polygon fill="grey" stroke="grey" points="361.5,-262.104 358,-252.104 354.5,-262.104 361.5,-262.104"/>
</g>
<!-- 9 -->
<g id="node10" class="node"><title>9</title>
<path fill="none" stroke="#d85656" stroke-width="2" d="M145.25,-396C145.25,-396 80.75,-396 80.75,-396 74.75,-396 68.75,-390 68.75,-384 68.75,-384 68.75,-372 68.75,-372 68.75,-366 74.75,-360 80.75,-360 80.75,-360 145.25,-360 145.25,-360 151.25,-360 157.25,-366 157.25,-372 157.25,-372 157.25,-384 157.25,-384 157.25,-390 151.25,-396 145.25,-396"/>
<text text-anchor="middle" x="113" y="-381" font-family="sans" font-size="10.00">place_seqs</text>
<text text-anchor="middle" x="113" y="-370" font-family="sans" font-size="10.00">timepoints: 6w</text>
</g>
<!-- 9&#45;&gt;7 -->
<g id="edge9" class="edge"><title>9&#45;&gt;7</title>
<path fill="none" stroke="grey" stroke-width="2" d="M113,-359.697C113,-351.983 113,-342.712 113,-334.112"/>
<polygon fill="grey" stroke="grey" points="116.5,-334.104 113,-324.104 109.5,-334.104 116.5,-334.104"/>
</g>
<!-- 10 -->
<g id="node11" class="node"><title>10</title>
<path fill="none" stroke="#d85656" stroke-width="2" d="M394.25,-396C394.25,-396 321.75,-396 321.75,-396 315.75,-396 309.75,-390 309.75,-384 309.75,-384 309.75,-372 309.75,-372 309.75,-366 315.75,-360 321.75,-360 321.75,-360 394.25,-360 394.25,-360 400.25,-360 406.25,-366 406.25,-372 406.25,-372 406.25,-384 406.25,-384 406.25,-390 400.25,-396 394.25,-396"/>
<text text-anchor="middle" x="358" y="-381" font-family="sans" font-size="10.00">place_seqs</text>
<text text-anchor="middle" x="358" y="-370" font-family="sans" font-size="10.00">timepoints: 12m</text>
</g>
<!-- 10&#45;&gt;8 -->
<g id="edge10" class="edge"><title>10&#45;&gt;8</title>
<path fill="none" stroke="grey" stroke-width="2" d="M358,-359.697C358,-351.983 358,-342.712 358,-334.112"/>
<polygon fill="grey" stroke="grey" points="361.5,-334.104 358,-324.104 354.5,-334.104 361.5,-334.104"/>
</g>
</g>
</svg>
